<?xml version="1.0" encoding="UTF-8"?>
<svg version="1.1" xmlns="http://www.w3.org/2000/svg" width="675" height="370">
<path d="M0 0 C1.98 0.99 1.98 0.99 4 2 C4.0879568 6.145697 4.14071153 10.29115012 4.1875 14.4375 C4.21263672 15.60216797 4.23777344 16.76683594 4.26367188 17.96679688 C4.31598157 24.15677775 4.04059702 29.3560648 1.69238281 35.12353516 C0.75558711 37.66239685 0.63190858 40.22499969 0.37109375 42.90234375 C-0.23213705 46.31218521 -1.60461121 49.36551368 -2.95703125 52.5390625 C-3.91364304 54.79623638 -4.75027413 57.06294963 -5.5625 59.375 C-6.77560318 62.43412977 -7.73802446 64.63967769 -10 67 C-10.66 67 -11.32 67 -12 67 C-12 67.66 -12 68.32 -12 69 C-12.66 69 -13.32 69 -14 69 C-14.0825 69.53625 -14.165 70.0725 -14.25 70.625 C-15.27581271 73.87340691 -16.96563894 76.28751859 -19 79 C-19.66 79 -20.32 79 -21 79 C-21 79.66 -21 80.32 -21 81 C-21.66 81 -22.32 81 -23 81 C-23 81.66 -23 82.32 -23 83 C-25.05222226 85.46266672 -27.17216689 86.58608345 -30 88 C-30.68449219 88.69609375 -30.68449219 88.69609375 -31.3828125 89.40625 C-33.10076937 91.09930894 -34.81592428 92.25013303 -36.875 93.5 C-37.53242188 93.9021875 -38.18984375 94.304375 -38.8671875 94.71875 C-39.57101562 95.1415625 -40.27484375 95.564375 -41 96 C-41.80566406 96.50789063 -42.61132812 97.01578125 -43.44140625 97.5390625 C-45.95501681 98.97431494 -48.32729398 99.94263716 -51.0625 100.875 C-58.76119612 103.58974883 -66.2604157 106.74083289 -73.6875 110.125 C-79.30585479 112.63426522 -85.09496195 114.43310576 -90.984375 116.19140625 C-91.69585693 116.40676025 -92.40733887 116.62211426 -93.14038086 116.84399414 C-94.5634535 117.27377903 -95.98870791 117.69641968 -97.41625977 118.11108398 C-101.18866118 119.25183324 -103.94379874 120.53979264 -107 123 C-110.25 123.6875 -110.25 123.6875 -113 124 C-113 124.66 -113 125.32 -113 126 C-113.721875 126.226875 -114.44375 126.45375 -115.1875 126.6875 C-118.52439237 128.24471644 -120.44948006 130.38054709 -123 133 C-123.66 133 -124.32 133 -125 133 C-129.60247989 140.88996552 -129.33665156 149.5932004 -129.3125 158.4375 C-129.32861328 159.61376953 -129.34472656 160.79003906 -129.36132812 162.00195312 C-129.36647899 171.21685296 -127.97870764 178.20724021 -123 186 C-122.566875 187.11375 -122.566875 187.11375 -122.125 188.25 C-118.79280984 196.39535373 -114.07785009 202.41846509 -108.01171875 208.71484375 C-106 211 -106 211 -106 213 C-105.443125 213.268125 -104.88625 213.53625 -104.3125 213.8125 C-97.81293303 217.15011547 -97.81293303 217.15011547 -95.625 219.4375 C-93.08797366 221.8769484 -90.08139625 223.31395299 -87 225 C-87 225.66 -87 226.32 -87 227 C-85.80375 227.350625 -84.6075 227.70125 -83.375 228.0625 C-76.5833424 230.30103034 -70.32970905 233.71359345 -64 237 C-64 238.65 -64 240.3 -64 242 C-73.9497682 242.4920215 -83.27606135 241.24768931 -92.74609375 238.08203125 C-95.47213423 237.1755328 -98.17578511 236.40063111 -100.94921875 235.66015625 C-113.95337132 232.08980957 -124.95963973 227.35306534 -136.28027344 220.01220703 C-138.13869324 218.8378307 -138.13869324 218.8378307 -141 218 C-141 217.34 -141 216.68 -141 216 C-141.5775 215.71125 -142.155 215.4225 -142.75 215.125 C-144.83333333 214.08333333 -146.91666667 213.04166667 -149 212 C-149 211.34 -149 210.68 -149 210 C-149.58136719 209.74476563 -150.16273438 209.48953125 -150.76171875 209.2265625 C-154.8651188 206.97792792 -157.80871063 203.37091166 -161 200 C-161.61488281 199.36707031 -162.22976563 198.73414063 -162.86328125 198.08203125 C-167.66742862 192.91570869 -170.83965175 187.27692436 -174 181 C-174.45503906 180.12730469 -174.91007813 179.25460937 -175.37890625 178.35546875 C-182.4836935 164.54885232 -184.34336198 151.91200869 -184.26074219 136.50341797 C-184.25005027 134.13613081 -184.26067597 131.76960754 -184.2734375 129.40234375 C-184.28629444 116.53985658 -183.29818207 104.88077191 -178 93 C-177.67 92.01 -177.34 91.02 -177 90 C-176.34 90 -175.68 90 -175 90 C-174.89171875 89.2678125 -174.7834375 88.535625 -174.671875 87.78125 C-173.08543437 81.21412368 -168.05116822 75.34961708 -163 71 C-162.34 71 -161.68 71 -161 71 C-161 70.34 -161 69.68 -161 69 C-158.2901401 65.98904456 -155.84827461 63.41103402 -152 62 C-151.01 62 -150.02 62 -149 62 C-149 61.34 -149 60.68 -149 60 C-146.77312024 58.70425129 -144.54366825 57.41332692 -142.3125 56.125 C-141.68666016 55.76019531 -141.06082031 55.39539063 -140.41601562 55.01953125 C-131.70028409 50 -131.70028409 50 -126 50 C-126 49.34 -126 48.68 -126 48 C-125.12730469 47.71769531 -124.25460937 47.43539062 -123.35546875 47.14453125 C-120.28347181 46.09669062 -117.31469083 44.9180375 -114.3125 43.6875 C-108.66570255 41.49766025 -102.98079216 39.79123678 -97.125 38.25 C-96.32876221 38.03947998 -95.53252441 37.82895996 -94.7121582 37.61206055 C-91.15420903 36.70103761 -87.71892866 35.96056611 -84.07421875 35.44921875 C-80.99072515 35.20775376 -80.99072515 35.20775376 -78.6875 33.5625 C-75.40114348 31.6518276 -72.42258277 31.20027001 -68.6953125 30.625 C-65.92182362 29.98187214 -63.5277971 28.91510762 -60.93652344 27.7578125 C-57.42544139 26.38383385 -53.75056526 25.73450076 -50.0625 25 C-42.71231003 23.52871515 -36.09996234 21.39964135 -29.25 18.3125 C-26 17 -26 17 -22 17 C-22 16.34 -22 15.68 -22 15 C-20.06374902 14.01836578 -18.12595461 13.03977546 -16.1875 12.0625 C-15.10855469 11.51722656 -14.02960938 10.97195312 -12.91796875 10.41015625 C-10 9 -10 9 -7 8 C-6.71125 7.401875 -6.4225 6.80375 -6.125 6.1875 C-4.64462682 3.30899659 -2.57721429 1.89900001 0 0 Z " fill="#7C6CAD" transform="translate(429,113)"/>
<path d="M0 0 C0.63550781 0.37898438 1.27101563 0.75796875 1.92578125 1.1484375 C3.625 2.1875 3.625 2.1875 6 4 C6 4.66 6 5.32 6 6 C6.66 6 7.32 6 8 6 C17.92873402 16.65046911 22.79813669 28.80080431 22.59228516 43.37939453 C22.04683276 54.50519431 17.43945574 64.69854184 10 73 C9.34 73 8.68 73 8 73 C8 73.66 8 74.32 8 75 C-5.66949573 86.37257226 -18.6819356 88.49016636 -36 87 C-43.25405116 85.63534469 -49.91901977 82.37132196 -55 77 C-55 76.34 -55 75.68 -55 75 C-55.99 75 -56.98 75 -58 75 C-58 74.34 -58 73.68 -58 73 C-58.99 72.67 -59.98 72.34 -61 72 C-69.5215194 63.20359288 -70.19598744 52.39144339 -70.25 40.8125 C-70.270625 39.72646484 -70.29125 38.64042969 -70.3125 37.52148438 C-70.35554408 28.56293464 -69.49889201 20.12698466 -63.5 13.0625 C-62.9121875 12.35222656 -62.324375 11.64195313 -61.71875 10.91015625 C-58.48318386 7.3142657 -58.48318386 7.3142657 -57 6 C-56.34 6 -55.68 6 -55 6 C-54.814375 5.4225 -54.62875 4.845 -54.4375 4.25 C-52.35496656 0.99038244 -49.34203813 -0.2864974 -46 -2 C-45.0925 -2.556875 -44.185 -3.11375 -43.25 -3.6875 C-30.79974019 -8.71548954 -11.08913427 -7.56982818 0 0 Z " fill="#8E81B7" transform="translate(364,27)"/>
<path d="M0 0 C0.63550781 0.37898438 1.27101563 0.75796875 1.92578125 1.1484375 C3.625 2.1875 3.625 2.1875 6 4 C6 4.66 6 5.32 6 6 C6.66 6 7.32 6 8 6 C17.92873402 16.65046911 22.79813669 28.80080431 22.59228516 43.37939453 C22.04683276 54.50519431 17.43945574 64.69854184 10 73 C9.34 73 8.68 73 8 73 C8 73.66 8 74.32 8 75 C-5.66949573 86.37257226 -18.6819356 88.49016636 -36 87 C-43.25405116 85.63534469 -49.91901977 82.37132196 -55 77 C-55 76.34 -55 75.68 -55 75 C-55.99 75 -56.98 75 -58 75 C-58 74.34 -58 73.68 -58 73 C-58.99 72.67 -59.98 72.34 -61 72 C-64.99670288 67.75350319 -67.8108363 62.96356458 -68.1875 57.0625 C-68.125625 56.381875 -68.06375 55.70125 -68 55 C-67.34 55.33 -66.68 55.66 -66 56 C-65.59270772 58.32156597 -65.25561323 60.6568787 -65 63 C-64.34 63 -63.68 63 -63 63 C-63 63.99 -63 64.98 -63 66 C-61.68 66 -60.36 66 -59 66 C-56 70.07142857 -56 70.07142857 -56 73 C-55.0409375 73.4021875 -55.0409375 73.4021875 -54.0625 73.8125 C-52 75 -52 75 -51 78 C-49.68 78 -48.36 78 -47 78 C-47 78.66 -47 79.32 -47 80 C-46.01 80 -45.02 80 -44 80 C-44 80.66 -44 81.32 -44 82 C-43.22914063 82.06058594 -42.45828125 82.12117188 -41.6640625 82.18359375 C-40.15972656 82.30927734 -40.15972656 82.30927734 -38.625 82.4375 C-37.12839844 82.55931641 -37.12839844 82.55931641 -35.6015625 82.68359375 C-33 83 -33 83 -31 84 C-23.71499993 84.40629702 -16.88246027 84.52825071 -10 82 C-8.69028093 81.61539995 -7.3777218 81.24033939 -6.0625 80.875 C-5.051875 80.58625 -4.04125 80.2975 -3 80 C-3 79.34 -3 78.68 -3 78 C-2.195625 77.731875 -1.39125 77.46375 -0.5625 77.1875 C0.283125 76.795625 1.12875 76.40375 2 76 C2.495 74.515 2.495 74.515 3 73 C3.66 73 4.32 73 5 73 C5 72.34 5 71.68 5 71 C5.66 71 6.32 71 7 71 C7 70.34 7 69.68 7 69 C7.66 69 8.32 69 9 69 C10.93000148 63.64697704 12.25228829 58.66124581 13 53 C14.68421053 47.31578947 14.68421053 47.31578947 16 46 C16.63755299 38.44744914 15.9601824 31.97757279 13 25 C12.67 25 12.34 25 12 25 C12 22.69 12 20.38 12 18 C11.34 18 10.68 18 10 18 C9.35998047 16.90751953 9.35998047 16.90751953 8.70703125 15.79296875 C6.74247534 12.57864959 4.60239187 10.68714912 1.6875 8.3125 C0.76324219 7.54550781 -0.16101563 6.77851562 -1.11328125 5.98828125 C-4.05590932 3.96149142 -6.58176612 2.97119737 -10 2 C-11.2684375 1.4740625 -11.2684375 1.4740625 -12.5625 0.9375 C-17.73170026 -1.05065395 -22.88459776 -1.24051046 -28.375 -1.3125 C-29.10460937 -1.34150391 -29.83421875 -1.37050781 -30.5859375 -1.40039062 C-36.23077778 -1.46591109 -39.28166226 -0.06779438 -44 3 C-47.29158418 4.22627646 -50.57869443 5.21046795 -54 6 C-54 6.66 -54 7.32 -54 8 C-54.66 8 -55.32 8 -56 8 C-54.39358862 2.74265366 -51.76808892 0.57062591 -47.05859375 -2.1015625 C-33.80802059 -8.69129298 -12.3170734 -8.40806208 0 0 Z " fill="#A3ABC0" transform="translate(364,27)"/>
<path d="M0 0 C2.125 0.9375 2.125 0.9375 4 2 C3.01 2 2.02 2 1 2 C1 2.66 1 3.32 1 4 C-1.12317169 5.88726373 -2.96297101 6.98589372 -5.625 8 C-8.31559565 8.87583581 -8.31559565 8.87583581 -10 12 C-10.66 12 -11.32 12 -12 12 C-12 12.66 -12 13.32 -12 14 C-12.99 14 -13.98 14 -15 14 C-15.33 15.65 -15.66 17.3 -16 19 C-17.65 19 -19.3 19 -21 19 C-21.0825 20.27875 -21.165 21.5575 -21.25 22.875 C-21.64260199 26.52221555 -22.47344169 29.45441829 -23.9375 32.8125 C-26.00284836 37.5672588 -26.80041969 42.1069028 -27.41015625 47.23828125 C-28 50 -28 50 -29.54296875 52.5390625 C-31.19671241 55.33224885 -31.34914263 56.85523581 -31.25 60.0625 C-31.23453125 60.89910156 -31.2190625 61.73570312 -31.203125 62.59765625 C-31.07861685 64.96825137 -31.07861685 64.96825137 -30.421875 67.05859375 C-29.91081274 69.41042656 -30.38508349 70.68159858 -31 73 C-31.65876616 83.31222415 -31.91136268 96.13295598 -26 105 C-25.76648032 106.86815748 -25.53747481 108.73708075 -25.33984375 110.609375 C-24.41418337 117.12091701 -22.95469394 122.74180358 -19 128 C-19 128.99 -19 129.98 -19 131 C-18.34 131 -17.68 131 -17 131 C-14 135.38461538 -14 135.38461538 -14 138 C-12.68 138.33 -11.36 138.66 -10 139 C-9.505 140.98 -9.505 140.98 -9 143 C-8.34 143 -7.68 143 -7 143 C-7 143.66 -7 144.32 -7 145 C-6.360625 145.268125 -5.72125 145.53625 -5.0625 145.8125 C-3 147 -3 147 -2 150 C-1.34 150 -0.68 150 0 150 C0 150.66 0 151.32 0 152 C0.61488281 152.18175781 1.22976563 152.36351562 1.86328125 152.55078125 C2.67152344 152.80214844 3.47976563 153.05351562 4.3125 153.3125 C5.11300781 153.55613281 5.91351563 153.79976562 6.73828125 154.05078125 C9.12757893 155.05354349 10.39589507 155.98059282 12 158 C12 158.66 12 159.32 12 160 C10.02 159.67 8.04 159.34 6 159 C6 158.34 6 157.68 6 157 C5.4225 156.71125 4.845 156.4225 4.25 156.125 C2.16666667 155.08333333 0.08333333 154.04166667 -2 153 C-2 152.34 -2 151.68 -2 151 C-2.58136719 150.74476563 -3.16273438 150.48953125 -3.76171875 150.2265625 C-7.8651188 147.97792792 -10.80871063 144.37091166 -14 141 C-14.61488281 140.36707031 -15.22976563 139.73414063 -15.86328125 139.08203125 C-20.66742862 133.91570869 -23.83965175 128.27692436 -27 122 C-27.68255859 120.69095703 -27.68255859 120.69095703 -28.37890625 119.35546875 C-35.4836935 105.54885232 -37.34336198 92.91200869 -37.26074219 77.50341797 C-37.25005027 75.13613081 -37.26067597 72.76960754 -37.2734375 70.40234375 C-37.28629444 57.53985658 -36.29818207 45.88077191 -31 34 C-30.67 33.01 -30.34 32.02 -30 31 C-29.34 31 -28.68 31 -28 31 C-27.89171875 30.2678125 -27.7834375 29.535625 -27.671875 28.78125 C-26.08543437 22.21412368 -21.05116822 16.34961708 -16 12 C-15.34 12 -14.68 12 -14 12 C-14 11.34 -14 10.68 -14 10 C-11.2901401 6.98904456 -8.84827461 4.41103402 -5 3 C-4.01 3 -3.02 3 -2 3 C-2 2.34 -2 1.68 -2 1 C-1.34 0.67 -0.68 0.34 0 0 Z " fill="#B95C94" transform="translate(282,172)"/>
<path d="M0 0 C-1.33683421 5.5903976 -1.33683421 5.5903976 -4.125 7.3125 C-7 8 -7 8 -10.875 8.375 C-13.95691937 8.6878264 -15.98750911 9.3778264 -18.625 11 C-22.11078873 13.06565258 -24.06437268 13.37639708 -28 14 C-30.89775924 14.73657536 -33.75968661 15.58437284 -36.625 16.4375 C-37.37523437 16.65470703 -38.12546875 16.87191406 -38.8984375 17.09570312 C-42.4659883 18.14888966 -45.68399287 19.30006991 -49 21 C-50.7634375 21.2475 -50.7634375 21.2475 -52.5625 21.5 C-56.11295563 21.76535587 -56.11295563 21.76535587 -59 24 C-60.69477439 24.41421802 -62.40601236 24.76430827 -64.125 25.0625 C-67.36108392 25.41604626 -67.36108392 25.41604626 -70 27 C-71.48638992 27.15655027 -72.97949127 27.25066943 -74.47265625 27.31640625 C-75.37177734 27.35830078 -76.27089844 27.40019531 -77.19726562 27.44335938 C-78.61555664 27.50233398 -78.61555664 27.50233398 -80.0625 27.5625 C-81.01189453 27.60568359 -81.96128906 27.64886719 -82.93945312 27.69335938 C-85.29281353 27.79979276 -87.64628354 27.90181008 -90 28 C-90 27.34 -90 26.68 -90 26 C-89.00419922 25.70996094 -89.00419922 25.70996094 -87.98828125 25.4140625 C-86.66376953 25.02347656 -86.66376953 25.02347656 -85.3125 24.625 C-84.44238281 24.36976563 -83.57226562 24.11453125 -82.67578125 23.8515625 C-80.02561922 23.05777968 -80.02561922 23.05777968 -77.66796875 21.98828125 C-73.53650945 20.4578871 -69.21971823 19.90856308 -64.8828125 19.23242188 C-60.59745037 18.50067608 -57.64029595 17.31374743 -54 15 C-51.5703125 14.375 -51.5703125 14.375 -49.125 14 C-45.40117075 13.42526108 -42.37211442 12.29219026 -38.93652344 10.7578125 C-35.42544139 9.38383385 -31.75056526 8.73450076 -28.0625 8 C-20.71231003 6.52871515 -14.09996234 4.39964135 -7.25 1.3125 C-4 0 -4 0 0 0 Z " fill="#7692BA" transform="translate(407,130)"/>
<path d="M0 0 C1.15224028 0.92961422 2.29659176 1.8690125 3.4375 2.8125 C4.07558594 3.33457031 4.71367187 3.85664063 5.37109375 4.39453125 C7 6 7 6 8 9 C9.79932579 10.06716704 9.79932579 10.06716704 12 11 C16.597254 13.57894737 16.597254 13.57894737 18.375 15.4375 C20.91202634 17.8769484 23.91860375 19.31395299 27 21 C27 21.66 27 22.32 27 23 C28.794375 23.5259375 28.794375 23.5259375 30.625 24.0625 C37.4166576 26.30103034 43.67029095 29.71359345 50 33 C50 34.65 50 36.3 50 38 C38.74917264 38.55635959 28.63950607 36.55074425 18 33 C16.31684295 32.52375923 14.63172452 32.05442682 12.9453125 31.58984375 C0.57776721 28.11409492 -10.16917888 23.9323543 -21 17 C-17.90279155 16.12159004 -16.09354597 16.00564594 -13 17 C-13 17.66 -13 18.32 -13 19 C-12.2575 19.103125 -11.515 19.20625 -10.75 19.3125 C-7.78921557 20.05269611 -6.38028854 21.15719597 -4 23 C-1.85266073 23.70514846 -1.85266073 23.70514846 0 24 C0 24.66 0 25.32 0 26 C1.5778125 25.9690625 1.5778125 25.9690625 3.1875 25.9375 C6.32704904 25.98896802 8.96883396 26.26517187 12 27 C12 27.66 12 28.32 12 29 C13.65 29 15.3 29 17 29 C17 29.66 17 30.32 17 31 C22.61 31 28.22 31 34 31 C32.68 30.34 31.36 29.68 30 29 C28.9805881 28.01979625 27.97753644 27.02196992 27 26 C26.34 25.67 25.68 25.34 25 25 C25 24.34 25 23.68 25 23 C23.7625 22.9175 22.525 22.835 21.25 22.75 C17.26024357 22.27066531 15.57565936 21.17004229 13 18 C12.34 17.67 11.68 17.34 11 17 C11 16.34 11 15.68 11 15 C10.34 15 9.68 15 9 15 C8.566875 14.2575 8.13375 13.515 7.6875 12.75 C6.14825826 9.85587774 6.14825826 9.85587774 3.375 8.0625 C1 6 1 6 0.1875 2.75 C0.125625 1.8425 0.06375 0.935 0 0 Z " fill="#B881A3" transform="translate(315,317)"/>
<path d="M0 0 C3.40664887 1.70332443 3.96512278 4.9735544 5.16015625 8.44140625 C8.31047151 21.78995138 6.25146762 34.28887453 -0.8203125 46.01953125 C-2.45494482 48.46464027 -4.03695202 50.80949558 -6 53 C-6.66 53 -7.32 53 -8 53 C-8 53.66 -8 54.32 -8 55 C-21.66949573 66.37257226 -34.6819356 68.49016636 -52 67 C-59.25405116 65.63534469 -65.91901977 62.37132196 -71 57 C-71 56.34 -71 55.68 -71 55 C-71.99 55 -72.98 55 -74 55 C-74 54.34 -74 53.68 -74 53 C-74.99 52.67 -75.98 52.34 -77 52 C-80.99670288 47.75350319 -83.8108363 42.96356458 -84.1875 37.0625 C-84.125625 36.381875 -84.06375 35.70125 -84 35 C-83.34 35.33 -82.68 35.66 -82 36 C-81.59270772 38.32156597 -81.25561323 40.6568787 -81 43 C-80.34 43 -79.68 43 -79 43 C-79 43.99 -79 44.98 -79 46 C-77.68 46 -76.36 46 -75 46 C-72 50.07142857 -72 50.07142857 -72 53 C-71.360625 53.268125 -70.72125 53.53625 -70.0625 53.8125 C-68 55 -68 55 -67 58 C-65.68 58 -64.36 58 -63 58 C-63 58.66 -63 59.32 -63 60 C-62.01 60 -61.02 60 -60 60 C-60 60.66 -60 61.32 -60 62 C-59.22914063 62.06058594 -58.45828125 62.12117188 -57.6640625 62.18359375 C-56.66117187 62.26738281 -55.65828125 62.35117188 -54.625 62.4375 C-53.62726563 62.51871094 -52.62953125 62.59992188 -51.6015625 62.68359375 C-49 63 -49 63 -47 64 C-39.71499993 64.40629702 -32.88246027 64.52825071 -26 62 C-24.69028093 61.61539995 -23.3777218 61.24033939 -22.0625 60.875 C-21.051875 60.58625 -20.04125 60.2975 -19 60 C-19 59.34 -19 58.68 -19 58 C-17.7934375 57.5978125 -17.7934375 57.5978125 -16.5625 57.1875 C-15.716875 56.795625 -14.87125 56.40375 -14 56 C-13.67 55.01 -13.34 54.02 -13 53 C-12.34 53 -11.68 53 -11 53 C-11 52.34 -11 51.68 -11 51 C-10.34 51 -9.68 51 -9 51 C-9 50.34 -9 49.68 -9 49 C-8.34 49 -7.68 49 -7 49 C-6.690625 48.21625 -6.38125 47.4325 -6.0625 46.625 C-5 44 -5 44 -4 42 C-3.34 42 -2.68 42 -2 42 C-2 41.01 -2 40.02 -2 39 C-1.34 39 -0.68 39 0 39 C2.24426535 28.8206536 3.08019127 19.2152804 0.4453125 9.046875 C-0.22177809 5.98059894 -0.13303411 3.12630169 0 0 Z " fill="#E7D8EA" transform="translate(380,47)"/>
<path d="M0 0 C0.5775 0.2475 1.155 0.495 1.75 0.75 C1.42 1.41 1.09 2.07 0.75 2.75 C0.09 2.75 -0.57 2.75 -1.25 2.75 C-1.25 3.41 -1.25 4.07 -1.25 4.75 C-1.91 4.75 -2.57 4.75 -3.25 4.75 C-3.25 5.41 -3.25 6.07 -3.25 6.75 C-5.30222226 9.21266672 -7.42216689 10.33608345 -10.25 11.75 C-10.70632813 12.2140625 -11.16265625 12.678125 -11.6328125 13.15625 C-13.35076937 14.84930894 -15.06592428 16.00013303 -17.125 17.25 C-17.78242188 17.6521875 -18.43984375 18.054375 -19.1171875 18.46875 C-20.17292969 19.10296875 -20.17292969 19.10296875 -21.25 19.75 C-22.05566406 20.25789063 -22.86132812 20.76578125 -23.69140625 21.2890625 C-26.20501681 22.72431494 -28.57729398 23.69263716 -31.3125 24.625 C-39.01119612 27.33974883 -46.5104157 30.49083289 -53.9375 33.875 C-58.28250246 35.82357253 -62.70601193 37.33779164 -67.25 38.75 C-67.90355469 38.96914062 -68.55710937 39.18828125 -69.23046875 39.4140625 C-72.57011924 40.48218099 -74.92699009 41.07920396 -78.25 39.75 C-77.1875 38.3125 -77.1875 38.3125 -75.25 36.75 C-74.13625 36.62625 -73.0225 36.5025 -71.875 36.375 C-67.37343631 35.59886833 -66.3095645 34.03903184 -63.25 30.75 C-58.31544569 27.39450307 -53.7011873 25.89705037 -47.8984375 24.55859375 C-44.98011666 23.66760199 -42.82933656 22.37095921 -40.25 20.75 C-38.17516057 19.69151592 -36.09151052 18.65014924 -34 17.625 C-30.38747322 16.04134772 -30.38747322 16.04134772 -27.25 13.75 C-26.0125 13.605625 -24.775 13.46125 -23.5 13.3125 C-20.13113109 12.91936449 -17.26801236 12.39618856 -14.25 10.75 C-13.92 9.76 -13.59 8.77 -13.25 7.75 C-11.6 7.75 -9.95 7.75 -8.25 7.75 C-8.0025 7.1725 -7.755 6.595 -7.5 6 C-3.9244186 -0.43604651 -3.9244186 -0.43604651 0 0 Z " fill="#79A6CB" transform="translate(409.25,189.25)"/>
<path d="M0 0 C0.66 0 1.32 0 2 0 C1.4437865 10.6064161 1.4437865 10.6064161 -0.5 14.75 C-2.10169138 18.22033131 -2.61397303 21.21693567 -3 25 C-3.66 25 -4.32 25 -5 25 C-4.88153467 30.60520034 -4.75727151 36.21023125 -4.62768555 41.81518555 C-4.58443247 43.72107468 -4.54275075 45.62700017 -4.50268555 47.53295898 C-4.44474929 50.27599021 -4.3811226 53.01884013 -4.31640625 55.76171875 C-4.29133751 57.03543587 -4.29133751 57.03543587 -4.26576233 58.33488464 C-4.1660381 62.33707142 -3.97583449 66.09318932 -3 70 C-2.34 70 -1.68 70 -1 70 C-0.74605469 70.80824219 -0.49210938 71.61648438 -0.23046875 72.44921875 C0.11371094 73.51785156 0.45789063 74.58648437 0.8125 75.6875 C1.14894531 76.74324219 1.48539063 77.79898438 1.83203125 78.88671875 C2.95112352 81.86971722 4.31414346 84.30894023 6 87 C7.00484883 89.33124929 8.00522247 91.66443537 9 94 C9.66 94.99 10.32 95.98 11 97 C11 97.99 11 98.98 11 100 C11.66 100 12.32 100 13 100 C16 104.38461538 16 104.38461538 16 107 C17.32 107.33 18.64 107.66 20 108 C20.33 109.32 20.66 110.64 21 112 C21.66 112 22.32 112 23 112 C23 112.66 23 113.32 23 114 C23.639375 114.268125 24.27875 114.53625 24.9375 114.8125 C27 116 27 116 28 119 C28.66 119 29.32 119 30 119 C30 119.66 30 120.32 30 121 C30.61488281 121.18175781 31.22976563 121.36351562 31.86328125 121.55078125 C32.67152344 121.80214844 33.47976563 122.05351562 34.3125 122.3125 C35.11300781 122.55613281 35.91351563 122.79976563 36.73828125 123.05078125 C39.12757893 124.05354349 40.39589507 124.98059282 42 127 C42 127.66 42 128.32 42 129 C40.02 128.67 38.04 128.34 36 128 C36 127.34 36 126.68 36 126 C35.4225 125.71125 34.845 125.4225 34.25 125.125 C32.16666667 124.08333333 30.08333333 123.04166667 28 122 C28 121.34 28 120.68 28 120 C27.12794922 119.61714844 27.12794922 119.61714844 26.23828125 119.2265625 C22.1348812 116.97792792 19.19128937 113.37091166 16 110 C15.38511719 109.36707031 14.77023437 108.73414063 14.13671875 108.08203125 C9.33257138 102.91570869 6.16034825 97.27692436 3 91 C2.31744141 89.69095703 2.31744141 89.69095703 1.62109375 88.35546875 C-5.4836935 74.54885232 -7.34336198 61.91200869 -7.26074219 46.50341797 C-7.25005027 44.13613081 -7.26067597 41.76960754 -7.2734375 39.40234375 C-7.28629444 26.53985658 -6.29818207 14.88077191 -1 3 C-0.67 2.01 -0.34 1.02 0 0 Z " fill="#E9BCDA" transform="translate(252,203)"/>
<path d="M0 0 C0.99 0 1.98 0 3 0 C3 0.66 3 1.32 3 2 C-0.93281242 5.0900669 -4.02125936 6.52583422 -9 7 C-9 7.66 -9 8.32 -9 9 C-10.0828125 9.3403125 -10.0828125 9.3403125 -11.1875 9.6875 C-14.52439237 11.24471644 -16.44948006 13.38054709 -19 16 C-19.66 16 -20.32 16 -21 16 C-25.60247989 23.88996552 -25.33665156 32.5932004 -25.3125 41.4375 C-25.32861328 42.61376953 -25.34472656 43.79003906 -25.36132812 45.00195312 C-25.36647899 54.21685296 -23.97870764 61.20724021 -19 69 C-18.71125 69.7425 -18.4225 70.485 -18.125 71.25 C-16.75464125 74.59976583 -14.96584095 77.60950249 -13.12109375 80.71875 C-11.92667706 83.14920068 -11.41768433 85.3343292 -11 88 C-12.9375 87.3125 -12.9375 87.3125 -15 86 C-15.75 83.375 -15.75 83.375 -16 81 C-16.66 81 -17.32 81 -18 81 C-18 80.34 -18 79.68 -18 79 C-19.32 79 -20.64 79 -22 79 C-24.90136455 71.97677068 -27.41529326 65.60118763 -28 58 C-28.33 57.67 -28.66 57.34 -29 57 C-30.52919603 46.63544912 -30.28585498 36.37868662 -29 26 C-28.34 26 -27.68 26 -27 26 C-27 23.69 -27 21.38 -27 19 C-26.34 19 -25.68 19 -25 19 C-24.8453125 18.1028125 -24.8453125 18.1028125 -24.6875 17.1875 C-23.89505679 14.66608978 -22.88056492 13.80534232 -21 12 C-20.67 11.319375 -20.34 10.63875 -20 9.9375 C-18.40629422 6.84969504 -16.14475963 6.05111358 -12.96875 4.9296875 C-11.8240625 4.58164063 -10.679375 4.23359375 -9.5 3.875 C-8.3553125 3.52179688 -7.210625 3.16859375 -6.03125 2.8046875 C-3 2 -3 2 0 2 C0 1.34 0 0.68 0 0 Z " fill="#DAA4C6" transform="translate(325,230)"/>
<path d="M0 0 C1.32 0.66 2.64 1.32 4 2 C4.0879568 6.145697 4.14071153 10.29115012 4.1875 14.4375 C4.21263672 15.60216797 4.23777344 16.76683594 4.26367188 17.96679688 C4.31598157 24.15677775 4.04059702 29.3560648 1.69238281 35.12353516 C0.75558711 37.66239685 0.63190858 40.22499969 0.37109375 42.90234375 C-0.23213705 46.31218521 -1.60461121 49.36551368 -2.95703125 52.5390625 C-3.91364304 54.79623638 -4.75027413 57.06294963 -5.5625 59.375 C-6.77560318 62.43412977 -7.73802446 64.63967769 -10 67 C-10.66 67 -11.32 67 -12 67 C-12 67.66 -12 68.32 -12 69 C-12.66 69 -13.32 69 -14 69 C-14.103125 69.639375 -14.20625 70.27875 -14.3125 70.9375 C-14.539375 71.618125 -14.76625 72.29875 -15 73 C-16.485 73.495 -16.485 73.495 -18 74 C-17.57062835 71.59551877 -17.10560196 70.13610919 -15.59375 68.1875 C-13.84685559 65.7898018 -12.86818322 63.5166181 -11.8125 60.75 C-11.46832031 59.85796875 -11.12414062 58.9659375 -10.76953125 58.046875 C-10.51558594 57.37140625 -10.26164062 56.6959375 -10 56 C-9.34 56 -8.68 56 -8 56 C-7.89042969 55.31292969 -7.78085937 54.62585938 -7.66796875 53.91796875 C-7.43013672 52.56638672 -7.43013672 52.56638672 -7.1875 51.1875 C-6.96126953 49.84751953 -6.96126953 49.84751953 -6.73046875 48.48046875 C-6 46 -6 46 -4.49609375 44.671875 C-2.06351318 41.95348209 -2.19438991 38.56013269 -1.875 35.0625 C-1.07886085 27.30363517 -1.07886085 27.30363517 -0.49291992 25.04760742 C0.04405256 22.81700403 0.20805876 20.74390053 0.31640625 18.453125 C0.35830078 17.60878906 0.40019531 16.76445312 0.44335938 15.89453125 C0.48267578 15.02183594 0.52199219 14.14914063 0.5625 13.25 C0.60568359 12.36183594 0.64886719 11.47367188 0.69335938 10.55859375 C0.79913615 8.37254037 0.90122546 6.18637911 1 4 C-2.11785113 4.64644661 -2.11785113 4.64644661 -3 7 C-3.66 7 -4.32 7 -5 7 C-5.33 7.99 -5.66 8.98 -6 10 C-7.32 9.67 -8.64 9.34 -10 9 C-9.01 8.67 -8.02 8.34 -7 8 C-6.71125 7.401875 -6.4225 6.80375 -6.125 6.1875 C-4.64462682 3.30899659 -2.57721429 1.89900001 0 0 Z " fill="#CAC1D0" transform="translate(429,113)"/>
<path d="M0 0 C0.33 0.66 0.66 1.32 1 2 C2.32796291 2.35412344 3.66216607 2.68521554 5 3 C5.99 3.66 6.98 4.32 8 5 C8 5.66 8 6.32 8 7 C9.423125 7.2165625 9.423125 7.2165625 10.875 7.4375 C14 8 14 8 16 9 C16 9.66 16 10.32 16 11 C19.63 11 23.26 11 27 11 C27 11.66 27 12.32 27 13 C28.32 13.33 29.64 13.66 31 14 C31 14.66 31 15.32 31 16 C31.804375 16.103125 32.60875 16.20625 33.4375 16.3125 C37.78247386 17.15100373 41.83457527 18.52821659 46 20 C45.73595202 18.02554603 45.73595202 18.02554603 45 16 C42.00384054 14.6954344 42.00384054 14.6954344 39 14 C42.05263664 13.01879536 43.94736336 13.01879536 47 14 C47 14.66 47 15.32 47 16 C49.475 16.99 49.475 16.99 52 18 C52 18.66 52 19.32 52 20 C52.61875 20.12375 53.2375 20.2475 53.875 20.375 C56 21 56 21 58 23 C51.73 22.67 45.46 22.34 39 22 C39 21.34 39 20.68 39 20 C37.35 20 35.7 20 34 20 C34 19.34 34 18.68 34 18 C30.04 17.67 26.08 17.34 22 17 C22 16.34 22 15.68 22 15 C21.34 14.9175 20.68 14.835 20 14.75 C16.00960837 13.75240209 12.61450357 11.92833317 9 10 C9 9.34 9 8.68 9 8 C5.7 7.67 2.4 7.34 -1 7 C-0.34 6.67 0.32 6.34 1 6 C0.649375 5.38125 0.29875 4.7625 -0.0625 4.125 C-0.371875 3.42375 -0.68125 2.7225 -1 2 C-0.67 1.34 -0.34 0.68 0 0 Z " fill="#B24E8B" transform="translate(293,326)"/>
<path d="M0 0 C3.40664887 1.70332443 3.96512278 4.9735544 5.16015625 8.44140625 C8.31047151 21.78995138 6.25146762 34.28887453 -0.8203125 46.01953125 C-2.45494482 48.46464027 -4.03695202 50.80949558 -6 53 C-6.66 53 -7.32 53 -8 53 C-8 53.66 -8 54.32 -8 55 C-9.390625 56.2890625 -9.390625 56.2890625 -11.25 57.625 C-11.85328125 58.07101563 -12.4565625 58.51703125 -13.078125 58.9765625 C-15 60 -15 60 -19 60 C-19 59.34 -19 58.68 -19 58 C-18.195625 57.731875 -17.39125 57.46375 -16.5625 57.1875 C-15.2940625 56.5996875 -15.2940625 56.5996875 -14 56 C-13.67 55.01 -13.34 54.02 -13 53 C-12.34 53 -11.68 53 -11 53 C-11 52.34 -11 51.68 -11 51 C-10.34 51 -9.68 51 -9 51 C-9 50.34 -9 49.68 -9 49 C-8.34 49 -7.68 49 -7 49 C-6.5359375 47.824375 -6.5359375 47.824375 -6.0625 46.625 C-5 44 -5 44 -4 42 C-3.34 42 -2.68 42 -2 42 C-2 41.01 -2 40.02 -2 39 C-1.34 39 -0.68 39 0 39 C2.24426535 28.8206536 3.08019127 19.2152804 0.4453125 9.046875 C-0.22177809 5.98059894 -0.13303411 3.12630169 0 0 Z " fill="#C5D2DF" transform="translate(380,47)"/>
<path d="M0 0 C0.66 0 1.32 0 2 0 C1.4437865 10.6064161 1.4437865 10.6064161 -0.5 14.75 C-2.10169138 18.22033131 -2.61397303 21.21693567 -3 25 C-3.66 25 -4.32 25 -5 25 C-4.88153467 30.60520034 -4.75727151 36.21023125 -4.62768555 41.81518555 C-4.58443247 43.72107468 -4.54275075 45.62700017 -4.50268555 47.53295898 C-4.44474929 50.27599021 -4.3811226 53.01884013 -4.31640625 55.76171875 C-4.29133751 57.03543587 -4.29133751 57.03543587 -4.26576233 58.33488464 C-4.1660381 62.33707142 -3.97583449 66.09318932 -3 70 C-2.34 70 -1.68 70 -1 70 C-1 72.31 -1 74.62 -1 77 C-1.66 77 -2.32 77 -3 77 C-8.01530786 67.78246409 -7.31543393 56.70342817 -7.26074219 46.50341797 C-7.25005027 44.13613081 -7.26067597 41.76960754 -7.2734375 39.40234375 C-7.28629444 26.53985658 -6.29818207 14.88077191 -1 3 C-0.67 2.01 -0.34 1.02 0 0 Z " fill="#FBDEF4" transform="translate(252,203)"/>
<path d="M0 0 C0.33 1.32 0.66 2.64 1 4 C1.66 4 2.32 4 3 4 C3 3.01 3 2.02 3 1 C3.66 1.33 4.32 1.66 5 2 C4.51273437 3.49273437 4.51273437 3.49273437 4.015625 5.015625 C2.89239916 8.95683795 2.73351155 12.64437703 2.75 16.75 C2.74484375 18.04421875 2.7396875 19.3384375 2.734375 20.671875 C2.73914545 24.13602484 2.73914545 24.13602484 5 27 C5.56095983 29.56379418 5.94743233 32.12816912 6.33984375 34.72265625 C6.83849645 37.35795663 6.83849645 37.35795663 10 39 C10.33 39.99 10.66 40.98 11 42 C11.99 42.66 12.98 43.32 14 44 C14 44.99 14 45.98 14 47 C12.68 46.67 11.36 46.34 10 46 C10 45.01 10 44.02 10 43 C8.68 43 7.36 43 6 43 C6 42.01 6 41.02 6 40 C5.34 40 4.68 40 4 40 C3.01 36.535 3.01 36.535 2 33 C1.34 33.66 0.68 34.32 0 35 C-0.84013699 31.34577951 -1.12854131 27.96519026 -1.1328125 24.21875 C-1.13410156 23.12949219 -1.13539063 22.04023437 -1.13671875 20.91796875 C-1.13285156 19.79003906 -1.12898438 18.66210938 -1.125 17.5 C-1.12886719 16.37207031 -1.13273437 15.24414062 -1.13671875 14.08203125 C-1.13542969 12.99277344 -1.13414062 11.90351562 -1.1328125 10.78125 C-1.13168457 9.79189453 -1.13055664 8.80253906 -1.12939453 7.78320312 C-1.00410608 5.08831948 -0.60357957 2.62530139 0 0 Z M3 27 C4 29 4 29 4 29 Z " fill="#B585AC" transform="translate(295,50)"/>
<path d="M0 0 C2.475 0.495 2.475 0.495 5 1 C5 1.66 5 2.32 5 3 C5.66 3 6.32 3 7 3 C8.625 4.375 8.625 4.375 10 6 C10 6.66 10 7.32 10 8 C10.94875 8.226875 11.8975 8.45375 12.875 8.6875 C16 10 16 10 17.375 12.1875 C18.11681636 15.52567361 18 18.58035937 18 22 C18.30272167 23.40279058 18.63836718 24.7987295 19 26.1875 C21.02575865 34.59224335 21.60579486 46.32367523 17 54 C16.34 54 15.68 54 15 54 C15 54.99 15 55.98 15 57 C14.34 57 13.68 57 13 57 C13.28138058 54.70704764 13.5754186 52.41564544 13.875 50.125 C14.03742188 48.84882812 14.19984375 47.57265625 14.3671875 46.2578125 C15 43 15 43 17 41 C17.89672605 33.53504674 16.92063972 26.88436506 14 20 C13.67 20 13.34 20 13 20 C13 17.69 13 15.38 13 13 C12.34 13 11.68 13 11 13 C10.62875 12.319375 10.2575 11.63875 9.875 10.9375 C7.60748744 7.38506365 4.86877467 5.1254709 1.64453125 2.453125 C1.10183594 1.97359375 0.55914062 1.4940625 0 1 C0 0.67 0 0.34 0 0 Z " fill="#98BBD2" transform="translate(363,32)"/>
<path d="M0 0 C2.125 0.9375 2.125 0.9375 4 2 C3.01 2 2.02 2 1 2 C1 2.66 1 3.32 1 4 C-1.12317169 5.88726373 -2.96297101 6.98589372 -5.625 8 C-8.31559565 8.87583581 -8.31559565 8.87583581 -10 12 C-10.66 12 -11.32 12 -12 12 C-12 12.66 -12 13.32 -12 14 C-12.99 14 -13.98 14 -15 14 C-15.33 15.65 -15.66 17.3 -16 19 C-17.65 19 -19.3 19 -21 19 C-21.03738281 19.56847656 -21.07476562 20.13695312 -21.11328125 20.72265625 C-21.56978622 26.08435193 -22.63489082 30.1669508 -25 35 C-25.66 35 -26.32 35 -27 35 C-27.66 36.32 -28.32 37.64 -29 39 C-29.13266368 27.96996255 -25.59529005 21.76927178 -18.1875 13.875 C-16 12 -16 12 -14 12 C-14 11.34 -14 10.68 -14 10 C-11.2901401 6.98904456 -8.84827461 4.41103402 -5 3 C-4.01 3 -3.02 3 -2 3 C-2 2.34 -2 1.68 -2 1 C-1.34 0.67 -0.68 0.34 0 0 Z " fill="#D2BED5" transform="translate(282,172)"/>
<path d="M0 0 C0.556875 0.226875 1.11375 0.45375 1.6875 0.6875 C1.0275 1.409375 0.3675 2.13125 -0.3125 2.875 C-2.4660853 5.90347933 -2.72426754 7.08453406 -2.3125 10.6875 C-3.199375 10.89375 -4.08625 11.1 -5 11.3125 C-9.05859461 12.99719965 -10.54111267 15.34762296 -13.3125 18.6875 C-15.9375 19.375 -15.9375 19.375 -18.3125 19.6875 C-19.95844139 21.08338754 -19.95844139 21.08338754 -21.3125 22.6875 C-24.54041555 24.8394437 -25.59650809 24.88836443 -29.3125 24.6875 C-24.76408092 20.89715077 -24.76408092 20.89715077 -22.31103516 19.75830078 C-20.08615999 18.56622865 -19.08027925 17.44487866 -17.5859375 15.4296875 C-17.1115625 14.80449219 -16.6371875 14.17929688 -16.1484375 13.53515625 C-15.66632813 12.88417969 -15.18421875 12.23320312 -14.6875 11.5625 C-12.94322167 9.21690466 -11.17116849 6.94740487 -9.3125 4.6875 C-8.6525 4.6875 -7.9925 4.6875 -7.3125 4.6875 C-7.3125 4.0275 -7.3125 3.3675 -7.3125 2.6875 C-3.15982824 -0.42700382 -3.15982824 -0.42700382 0 0 Z " fill="#6987B6" transform="translate(414.3125,178.3125)"/>
<path d="M0 0 C0 0.66 0 1.32 0 2 C-1.32 2 -2.64 2 -4 2 C-4 2.66 -4 3.32 -4 4 C-4.66 4 -5.32 4 -6 4 C-6.09023438 4.61359375 -6.18046875 5.2271875 -6.2734375 5.859375 C-7 8 -7 8 -8.6015625 9.265625 C-13.33477007 11.56826652 -16.65210302 12.20568835 -22 12 C-23.34882408 12.63474075 -24.6846659 13.29848848 -26 14 C-28.75 14.125 -28.75 14.125 -31 14 C-31 13.34 -31 12.68 -31 12 C-28.75474054 10.82333996 -26.50455858 9.6585926 -24.25 8.5 C-23.61578125 8.16613281 -22.9815625 7.83226562 -22.328125 7.48828125 C-18.87989007 5.72824467 -16.95159931 5 -13 5 C-13 4.34 -13 3.68 -13 3 C-12.05125 2.690625 -11.1025 2.38125 -10.125 2.0625 C-3.76724138 -0.09913793 -3.76724138 -0.09913793 0 0 Z " fill="#8595B8" transform="translate(316,158)"/>
<path d="M0 0 C2.68125418 2.38246339 4.11423459 4.8545504 5.6875 8.0625 C6.12449219 8.94035156 6.56148438 9.81820313 7.01171875 10.72265625 C8 13 8 13 8 15 C8.66 15 9.32 15 10 15 C10 15.66 10 16.32 10 17 C10.804375 17.2475 11.60875 17.495 12.4375 17.75 C15 19 15 19 15.75 20.9375 C15.87375 21.9584375 15.87375 21.9584375 16 23 C16.65391779 26.1108154 16.65391779 26.1108154 19 27.0625 C19.66 27.371875 20.32 27.68125 21 28 C21.33 28.66 21.66 29.32 22 30 C24.01669827 31.13350534 24.01669827 31.13350534 26 32 C26 32.66 26 33.32 26 34 C26.66 34 27.32 34 28 34 C28 34.66 28 35.32 28 36 C29.98 36.66 31.96 37.32 34 38 C34 38.99 34 39.98 34 41 C30.59687262 39.94124926 27.98646769 38.99097846 25 37 C25 36.34 25 35.68 25 35 C24.34 35 23.68 35 23 35 C20.375 32.625 20.375 32.625 18 30 C18 29.34 18 28.68 18 28 C17.34 28 16.68 28 16 28 C15.67 26.68 15.34 25.36 15 24 C14.401875 23.9175 13.80375 23.835 13.1875 23.75 C10.34974589 22.77705573 9.50323933 21.55550687 8 19 C8 18.01 8 17.02 8 16 C7.34 16 6.68 16 6 16 C2.71232131 10.64993984 0.40316925 6.31631828 0 0 Z " fill="#BA6195" transform="translate(257,287)"/>
<path d="M0 0 C0.66 0 1.32 0 2 0 C2.54429026 5.17075743 1.06815495 8.81600392 -0.921875 13.46875 C-1.89336209 15.74963273 -2.74233628 18.03666089 -3.5625 20.375 C-4.77560318 23.43412977 -5.73802446 25.63967769 -8 28 C-8.66 28 -9.32 28 -10 28 C-10 28.66 -10 29.32 -10 30 C-10.66 30 -11.32 30 -12 30 C-12.103125 30.639375 -12.20625 31.27875 -12.3125 31.9375 C-12.539375 32.618125 -12.76625 33.29875 -13 34 C-14.485 34.495 -14.485 34.495 -16 35 C-15.57062835 32.59551877 -15.10560196 31.13610919 -13.59375 29.1875 C-11.84685559 26.7898018 -10.86818322 24.5166181 -9.8125 21.75 C-9.46832031 20.85796875 -9.12414062 19.9659375 -8.76953125 19.046875 C-8.51558594 18.37140625 -8.26164062 17.6959375 -8 17 C-7.34 17 -6.68 17 -6 17 C-5.89042969 16.31292969 -5.78085937 15.62585938 -5.66796875 14.91796875 C-5.43013672 13.56638672 -5.43013672 13.56638672 -5.1875 12.1875 C-4.96126953 10.84751953 -4.96126953 10.84751953 -4.73046875 9.48046875 C-3.93415783 6.77641829 -3.06001735 5.84086657 -1 4 C-0.28552357 1.89667109 -0.28552357 1.89667109 0 0 Z " fill="#BEC2DB" transform="translate(427,152)"/>
<path d="M0 0 C0.99 0 1.98 0 3 0 C3 0.66 3 1.32 3 2 C-0.93281242 5.0900669 -4.02125936 6.52583422 -9 7 C-9 7.66 -9 8.32 -9 9 C-9.721875 9.226875 -10.44375 9.45375 -11.1875 9.6875 C-14.52439237 11.24471644 -16.44948006 13.38054709 -19 16 C-19.66 16 -20.32 16 -21 16 C-23.21399303 19.79541663 -24.00980198 23.75629421 -25 28 C-25.33 28 -25.66 28 -26 28 C-26.19233603 23.19159934 -25.91765738 19.44089077 -24 15 C-22.5 13.375 -22.5 13.375 -21 12 C-20.67 11.319375 -20.34 10.63875 -20 9.9375 C-18.40629422 6.84969504 -16.14475963 6.05111358 -12.96875 4.9296875 C-11.8240625 4.58164063 -10.679375 4.23359375 -9.5 3.875 C-8.3553125 3.52179688 -7.210625 3.16859375 -6.03125 2.8046875 C-3 2 -3 2 0 2 C0 1.34 0 0.68 0 0 Z " fill="#A793B5" transform="translate(325,230)"/>
<path d="M0 0 C0 0.66 0 1.32 0 2 C-3.22791555 4.1519437 -4.28400809 4.20086443 -8 4 C-7.34 5.65 -6.68 7.3 -6 9 C-8.99369468 10.01959167 -11.99534687 11.01319934 -15 12 C-16.32837891 12.44666016 -16.32837891 12.44666016 -17.68359375 12.90234375 C-18.55113281 13.18207031 -19.41867187 13.46179688 -20.3125 13.75 C-21.11300781 14.01296875 -21.91351563 14.2759375 -22.73828125 14.546875 C-25.1996939 15.04000776 -26.64546799 14.79741588 -29 14 C-27.9375 12.5625 -27.9375 12.5625 -26 11 C-24.88625 10.87625 -23.7725 10.7525 -22.625 10.625 C-18.12343631 9.84886833 -17.0595645 8.28903184 -14 5 C-9.63985902 1.94184556 -5.37863326 0 0 0 Z " fill="#6B9EC1" transform="translate(360,215)"/>
<path d="M0 0 C0.99 0.33 1.98 0.66 3 1 C2.360625 1.763125 1.72125 2.52625 1.0625 3.3125 C-1.14232781 5.88246713 -1.14232781 5.88246713 -2 9 C-2.66 9 -3.32 9 -4 9 C-4 11.31 -4 13.62 -4 16 C-4.66 16 -5.32 16 -6 16 C-6.0294191 19.47914843 -6.04693792 22.95826417 -6.0625 26.4375 C-6.07087891 27.41138672 -6.07925781 28.38527344 -6.08789062 29.38867188 C-6.10781115 35.34490876 -5.85809885 41.10132047 -5 47 C-4.67 47.33 -4.34 47.66 -4 48 C-3.95936168 49.66617115 -3.957279 51.33388095 -4 53 C-4.66 53 -5.32 53 -6 53 C-8.0051715 48.78504766 -8.46343576 44.78790084 -8.6875 40.1875 C-8.72512451 39.44701416 -8.76274902 38.70652832 -8.80151367 37.94360352 C-9.70607113 16.45068031 -9.70607113 16.45068031 -4 7 C-3.814375 6.05125 -3.62875 5.1025 -3.4375 4.125 C-3 2 -3 2 0 0 Z " fill="#A64685" transform="translate(302,240)"/>
<path d="M0 0 C2.64 0.33 5.28 0.66 8 1 C8 1.66 8 2.32 8 3 C9.11375 3.1546875 9.11375 3.1546875 10.25 3.3125 C13.21078443 4.05269611 14.61971146 5.15719597 17 7 C19.14733927 7.70514846 19.14733927 7.70514846 21 8 C21 8.66 21 9.32 21 10 C22.5778125 9.9690625 22.5778125 9.9690625 24.1875 9.9375 C27.32704904 9.98896802 29.96883396 10.26517187 33 11 C33 11.66 33 12.32 33 13 C34.65 13 36.3 13 38 13 C38 13.66 38 14.32 38 15 C39.98 15 41.96 15 44 15 C44 15.66 44 16.32 44 17 C37.69857982 16.44932972 31.96524781 15.40483159 25.9375 13.5 C25.12692139 13.24589355 24.31634277 12.99178711 23.48120117 12.72998047 C15.02090636 9.9211527 7.54662443 5.68411171 0 1 C0 0.67 0 0.34 0 0 Z " fill="#E2B4CF" transform="translate(294,333)"/>
<path d="M0 0 C0.66 0 1.32 0 2 0 C2 0.66 2 1.32 2 2 C2.66 2 3.32 2 4 2 C4.33 3.65 4.66 5.3 5 7 C5.99 7.33 6.98 7.66 8 8 C8.66 7.34 9.32 6.68 10 6 C10.185625 7.19625 10.37125 8.3925 10.5625 9.625 C11.64359324 14.1495754 13.83163052 16.03518174 17.5390625 18.67578125 C18.02117187 19.11277344 18.50328125 19.54976563 19 20 C19 20.99 19 21.98 19 23 C19.66 23 20.32 23 21 23 C21 23.66 21 24.32 21 25 C21.804375 25.268125 22.60875 25.53625 23.4375 25.8125 C24.283125 26.204375 25.12875 26.59625 26 27 C26.33 27.99 26.66 28.98 27 30 C24 30 24 30 21.4375 27.75 C19.39052853 25.44059629 18.34353499 23.68706998 17 21 C15.35623812 20.45207937 13.71150378 19.9069367 12.0625 19.375 C9.45573292 17.63715528 8.44527575 15.4699721 7.0078125 12.7421875 C5.67795637 10.44328892 3.93231588 8.80349482 2 7 C0 4 0 4 0 0 Z " fill="#B5548E" transform="translate(305,309)"/>
<path d="M0 0 C0.99 0.495 0.99 0.495 2 1 C2.494119 2.97647602 2.98376815 4.95438135 3.43359375 6.94140625 C4.17082193 9.62084937 5.49416508 11.6785045 7 14 C7.28875 14.7425 7.5775 15.485 7.875 16.25 C9.24535875 19.59976583 11.03415905 22.60950249 12.87890625 25.71875 C14.07332294 28.14920068 14.58231567 30.3343292 15 33 C13.0625 32.3125 13.0625 32.3125 11 31 C10.25 28.375 10.25 28.375 10 26 C9.34 26 8.68 26 8 26 C8 25.34 8 24.68 8 24 C7.34 24 6.68 24 6 24 C5.49440092 22.56445975 4.9957251 21.1264798 4.5 19.6875 C4.08234375 18.48673828 4.08234375 18.48673828 3.65625 17.26171875 C3 15 3 15 3 12 C2.34 12 1.68 12 1 12 C0.01751476 7.9472484 -0.08159574 4.16138263 0 0 Z " fill="#EEC5DE" transform="translate(299,285)"/>
<path d="M0 0 C-1.31747334 5.50943396 -1.31747334 5.50943396 -4 7.4375 C-8.42397947 8.26699615 -12.57293733 7.63612163 -17 7 C-17 7.66 -17 8.32 -17 9 C-19.97 9 -22.94 9 -26 9 C-22.30989796 6.53993197 -18.89448806 5.2484689 -14.625 4.0625 C-11.99052572 3.2903265 -9.77703708 2.49908222 -7.3125 1.375 C-4 0 -4 0 0 0 Z " fill="#7984AB" transform="translate(407,130)"/>
<path d="M0 0 C8.85130541 -1.00203457 14.82886513 3.21924342 22 8 C22 8.66 22 9.32 22 10 C22.66 10 23.32 10 24 10 C29 15.47619048 29 15.47619048 29 18 C27.68 17.67 26.36 17.34 25 17 C25 16.34 25 15.68 25 15 C24.01 14.67 23.02 14.34 22 14 C22 13.34 22 12.68 22 12 C21.34 12 20.68 12 20 12 C20 11.34 20 10.68 20 10 C19.21625 9.896875 18.4325 9.79375 17.625 9.6875 C15 9 15 9 13 6 C10.69855891 4.92863949 8.3659787 3.92010283 6 3 C6 2.34 6 1.68 6 1 C4.02 1 2.04 1 0 1 C0 0.67 0 0.34 0 0 Z " fill="#BFD5E2" transform="translate(348,23)"/>
<path d="M0 0 C0 0.99 0 1.98 0 3 C-7.64473588 6.03153319 -14.814234 6.6623226 -23 7 C-23 6.34 -23 5.68 -23 5 C-22.00419922 4.70996094 -22.00419922 4.70996094 -20.98828125 4.4140625 C-15.59313295 2.85822311 -15.59313295 2.85822311 -10.375 0.8125 C-6.86575136 -0.38803243 -3.69694851 -0.12532029 0 0 Z " fill="#96B8D8" transform="translate(340,151)"/>
<path d="M0 0 C3.57612928 0.62165688 6.76266674 1.57508668 10.125 2.9375 C10.97320312 3.27652344 11.82140625 3.61554688 12.6953125 3.96484375 C15 5 15 5 18 7 C18 8.65 18 10.3 18 12 C14.04 12 10.08 12 6 12 C6 11.34 6 10.68 6 10 C8.64 10 11.28 10 14 10 C14 9.34 14 8.68 14 8 C13.01 8 12.02 8 11 8 C11 7.34 11 6.68 11 6 C10.21625 5.855625 9.4325 5.71125 8.625 5.5625 C6 5 6 5 4 4 C4 3.34 4 2.68 4 2 C2.68 2 1.36 2 0 2 C0 1.34 0 0.68 0 0 Z " fill="#EAD7E3" transform="translate(347,343)"/>
<path d="M0 0 C2.475 0.495 2.475 0.495 5 1 C5 1.66 5 2.32 5 3 C5.66 3 6.32 3 7 3 C8.625 4.375 8.625 4.375 10 6 C10 6.66 10 7.32 10 8 C10.94875 8.226875 11.8975 8.45375 12.875 8.6875 C16 10 16 10 17.4375 12.375 C18.01279315 15.05970136 17.94242239 16.45545955 17 19 C15.68 19.33 14.36 19.66 13 20 C13 17.69 13 15.38 13 13 C12.34 13 11.68 13 11 13 C10.62875 12.319375 10.2575 11.63875 9.875 10.9375 C7.60748744 7.38506365 4.86877467 5.1254709 1.64453125 2.453125 C1.10183594 1.97359375 0.55914062 1.4940625 0 1 C0 0.67 0 0.34 0 0 Z " fill="#ACCBDC" transform="translate(363,32)"/>
<path d="M0 0 C0.99 0.495 0.99 0.495 2 1 C2.40729228 3.32156597 2.74438677 5.6568787 3 8 C3.66 8 4.32 8 5 8 C5 8.99 5 9.98 5 11 C6.32 11 7.64 11 9 11 C12 15.07142857 12 15.07142857 12 18 C12.639375 18.28875 13.27875 18.5775 13.9375 18.875 C16 20 16 20 17 22 C15.68 22 14.36 22 13 22 C13 21.34 13 20.68 13 20 C12.01 20 11.02 20 10 20 C10 19.34 10 18.68 10 18 C9.01 17.67 8.02 17.34 7 17 C3.00329712 12.75350319 0.1891637 7.96356458 -0.1875 2.0625 C-0.125625 1.381875 -0.06375 0.70125 0 0 Z " fill="#DBBBD5" transform="translate(296,82)"/>
<path d="M0 0 C2.475 0.495 2.475 0.495 5 1 C5 1.66 5 2.32 5 3 C5.639375 3.268125 6.27875 3.53625 6.9375 3.8125 C9 5 9 5 10 8 C10.66 8 11.32 8 12 8 C12 8.66 12 9.32 12 10 C12.61488281 10.18175781 13.22976563 10.36351562 13.86328125 10.55078125 C15.07564453 10.92783203 15.07564453 10.92783203 16.3125 11.3125 C17.11300781 11.55613281 17.91351563 11.79976563 18.73828125 12.05078125 C21.12757893 13.05354349 22.39589507 13.98059282 24 16 C24 16.66 24 17.32 24 18 C22.02 17.67 20.04 17.34 18 17 C18 16.34 18 15.68 18 15 C17.4225 14.71125 16.845 14.4225 16.25 14.125 C14.16666667 13.08333333 12.08333333 12.04166667 10 11 C10 10.34 10 9.68 10 9 C9.40703125 8.74476563 8.8140625 8.48953125 8.203125 8.2265625 C5.78775462 6.88183502 4.48788294 5.50785633 2.75 3.375 C2.22921875 2.74335938 1.7084375 2.11171875 1.171875 1.4609375 C0.78515625 0.97882813 0.3984375 0.49671875 0 0 Z " fill="#EEC0DF" transform="translate(270,314)"/>
<path d="M0 0 C0.5775 0.2475 1.155 0.495 1.75 0.75 C1.42 1.41 1.09 2.07 0.75 2.75 C0.09 2.75 -0.57 2.75 -1.25 2.75 C-1.25 3.41 -1.25 4.07 -1.25 4.75 C-1.91 4.75 -2.57 4.75 -3.25 4.75 C-3.25 5.41 -3.25 6.07 -3.25 6.75 C-5.30222226 9.21266672 -7.42216689 10.33608345 -10.25 11.75 C-11.95921589 13.2912312 -11.95921589 13.2912312 -13.25 14.75 C-14.24 14.42 -15.23 14.09 -16.25 13.75 C-15.26 11.77 -14.27 9.79 -13.25 7.75 C-11.6 7.75 -9.95 7.75 -8.25 7.75 C-8.0025 7.1725 -7.755 6.595 -7.5 6 C-3.9244186 -0.43604651 -3.9244186 -0.43604651 0 0 Z " fill="#E2E7F4" transform="translate(409.25,189.25)"/>
<path d="M0 0 C0.66 0.33 1.32 0.66 2 1 C-0.80627778 5.74908547 -3.25091453 8.19372222 -8 11 C-8 9.68 -8 8.36 -8 7 C-7.01 7 -6.02 7 -5 7 C-5 6.34 -5 5.68 -5 5 C-4.34 5 -3.68 5 -3 5 C-2.690625 4.360625 -2.38125 3.72125 -2.0625 3.0625 C-1 1 -1 1 0 0 Z M-6 13 C-9.75 16 -9.75 16 -12 16 C-12.66 17.32 -13.32 18.64 -14 20 C-14.98120464 16.94736336 -14.98120464 15.05263664 -14 12 C-9.375 10.75 -9.375 10.75 -6 13 Z " fill="#955992" transform="translate(275,179)"/>
<path d="M0 0 C0 0.66 0 1.32 0 2 C-0.66 2 -1.32 2 -2 2 C-2 2.66 -2 3.32 -2 4 C-3.39025391 4.19916016 -3.39025391 4.19916016 -4.80859375 4.40234375 C-6.00613281 4.57894531 -7.20367187 4.75554687 -8.4375 4.9375 C-9.63246094 5.11152344 -10.82742188 5.28554687 -12.05859375 5.46484375 C-14.87955676 5.68985213 -14.87955676 5.68985213 -16 7 C-18.67058851 7.14115161 -21.32432238 7.04247107 -24 7 C-23.67 6.34 -23.34 5.68 -23 5 C-20.66872508 4.23980166 -18.37176173 3.60952618 -16 3 C-14.64648438 2.60748047 -14.64648438 2.60748047 -13.265625 2.20703125 C-12.31171875 1.93246094 -11.3578125 1.65789062 -10.375 1.375 C-9.02535156 0.98441406 -9.02535156 0.98441406 -7.6484375 0.5859375 C-5.00828444 0.00183284 -2.69392336 -0.10697891 0 0 Z " fill="#BACFE4" transform="translate(380,139)"/>
<path d="M0 0 C0.66 0 1.32 0 2 0 C2.08082094 1.95766281 2.13910778 3.91626728 2.1875 5.875 C2.22230469 6.96554688 2.25710938 8.05609375 2.29296875 9.1796875 C2.19628906 10.11039063 2.09960938 11.04109375 2 12 C1.01 12.66 0.02 13.32 -1 14 C-1.33 12.02 -1.66 10.04 -2 8 C-3.98 8.99 -3.98 8.99 -6 10 C-6.33 9.01 -6.66 8.02 -7 7 C-6 5 -6 5 -3 4 C-1.99357052 2.67151309 -0.99307821 1.33849671 0 0 Z " fill="#7E6598" transform="translate(427,119)"/>
<path d="M0 0 C2.64 0.33 5.28 0.66 8 1 C8 1.66 8 2.32 8 3 C10.475 3.99 10.475 3.99 13 5 C13 5.66 13 6.32 13 7 C13.61875 7.12375 14.2375 7.2475 14.875 7.375 C17 8 17 8 19 10 C14.48382401 10.07654536 10.40914783 10.10228696 6 9 C6.185625 8.38125 6.37125 7.7625 6.5625 7.125 C7.23686176 4.95839822 7.23686176 4.95839822 6 3 C4.02111039 2.27306096 2.02045442 1.60183749 0 1 C0 0.67 0 0.34 0 0 Z " fill="#9A5380" transform="translate(332,339)"/>
<path d="M0 0 C0.66 0 1.32 0 2 0 C0.84826645 2.46800047 -0.04783565 4.04783565 -2 6 C-2.268125 6.78375 -2.53625 7.5675 -2.8125 8.375 C-4.28823907 11.63716004 -6.13711896 12.90520899 -9 15 C-9.804375 15.804375 -9.804375 15.804375 -10.625 16.625 C-12.9000736 18.9000736 -14.45112919 19.97447113 -17.6875 20.125 C-18.450625 20.08375 -19.21375 20.0425 -20 20 C-15.45158092 16.20965077 -15.45158092 16.20965077 -12.99853516 15.07080078 C-10.77365999 13.87872865 -9.76777925 12.75737866 -8.2734375 10.7421875 C-7.7990625 10.11699219 -7.3246875 9.49179688 -6.8359375 8.84765625 C-6.35382813 8.19667969 -5.87171875 7.54570312 -5.375 6.875 C-3.63072167 4.52940466 -1.85866849 2.25990487 0 0 Z " fill="#678FC0" transform="translate(405,183)"/>
<path d="M0 0 C9.61464862 1.1179824 19.0457497 3.31295576 28 7 C28 7.66 28 8.32 28 9 C26.02 9 24.04 9 22 9 C22 8.34 22 7.68 22 7 C20.35 7 18.7 7 17 7 C17 6.34 17 5.68 17 5 C13.04 4.67 9.08 4.34 5 4 C5 3.34 5 2.68 5 2 C3.35 1.67 1.7 1.34 0 1 C0 0.67 0 0.34 0 0 Z " fill="#B35B94" transform="translate(310,339)"/>
<path d="M0 0 C0.66 0 1.32 0 2 0 C1.42365861 4.75481646 -0.55068521 7.97048212 -3 12 C-3.66 12 -4.32 12 -5 12 C-5 12.66 -5 13.32 -5 14 C-5.66 14 -6.32 14 -7 14 C-7.103125 14.639375 -7.20625 15.27875 -7.3125 15.9375 C-7.539375 16.618125 -7.76625 17.29875 -8 18 C-8.99 18.33 -9.98 18.66 -11 19 C-10.05652269 14.38008275 -7.66344508 11.1094669 -5.0625 7.25 C-4.60681641 6.55261719 -4.15113281 5.85523438 -3.68164062 5.13671875 C-2.51112539 3.38523037 -1.26127982 1.68730278 0 0 Z " fill="#CFD8E9" transform="translate(422,168)"/>
<path d="M0 0 C0 0.33 0 0.66 0 1 C-3.82320557 2.42258812 -6.91281305 3.24042276 -11 3 C-11 3.66 -11 4.32 -11 5 C-11.99 5 -12.98 5 -14 5 C-14 5.66 -14 6.32 -14 7 C-18.38461538 10 -18.38461538 10 -21 10 C-21 10.66 -21 11.32 -21 12 C-21.66 12 -22.32 12 -23 12 C-21.63600763 7.53602498 -19.90097811 5.54411616 -16 3 C-10.56776429 0.27806605 -6.03562566 -0.32333709 0 0 Z " fill="#E6E5F1" transform="translate(331,23)"/>
<path d="M0 0 C0 0.66 0 1.32 0 2 C-1.32 2 -2.64 2 -4 2 C-4 2.66 -4 3.32 -4 4 C-4.66 4 -5.32 4 -6 4 C-6 4.66 -6 5.32 -6 6 C-6.75925781 6.13277344 -7.51851563 6.26554688 -8.30078125 6.40234375 C-9.29464844 6.57894531 -10.28851563 6.75554687 -11.3125 6.9375 C-12.79169922 7.19853516 -12.79169922 7.19853516 -14.30078125 7.46484375 C-17.08189213 7.95746847 -17.08189213 7.95746847 -20 9 C-20.66 8.34 -21.32 7.68 -22 7 C-18.62902617 5.50178941 -16.79557881 5 -13 5 C-13 4.34 -13 3.68 -13 3 C-12.05125 2.690625 -11.1025 2.38125 -10.125 2.0625 C-3.76724138 -0.09913793 -3.76724138 -0.09913793 0 0 Z " fill="#A1BED9" transform="translate(316,158)"/>
<path d="M0 0 C2.56296049 1.28148025 2.59318218 2.15611519 3.5 4.8125 C4.29515268 7.0768688 5.06514375 9.12343025 6.1875 11.25 C7 13 7 13 7 17 C5.10546875 16.734375 5.10546875 16.734375 3 16 C1.98828125 14.328125 1.98828125 14.328125 1.3125 12.25 C1.07660156 11.52941406 0.84070313 10.80882812 0.59765625 10.06640625 C-1.2388664 3.71659919 -1.2388664 3.71659919 0 0 Z " fill="#CE8DB0" transform="translate(251,277)"/>
<path d="M0 0 C2.68125418 2.38246339 4.11423459 4.8545504 5.6875 8.0625 C6.12449219 8.94035156 6.56148438 9.81820313 7.01171875 10.72265625 C8 13 8 13 8 15 C8.66 15 9.32 15 10 15 C10 15.66 10 16.32 10 17 C12.475 17.99 12.475 17.99 15 19 C14.67 19.66 14.34 20.32 14 21 C12.02 20.34 10.04 19.68 8 19 C8 18.01 8 17.02 8 16 C7.34 16 6.68 16 6 16 C2.71232131 10.64993984 0.40316925 6.31631828 0 0 Z " fill="#B15189" transform="translate(257,287)"/>
<path d="M0 0 C0.33 0.66 0.66 1.32 1 2 C1.66 2 2.32 2 3 2 C2.44894091 5.9492568 1.61064629 9.34920174 0 13 C-0.66 13 -1.32 13 -2 13 C-2.66 14.32 -3.32 15.64 -4 17 C-3.91227545 15.10333474 -3.80408699 13.20761007 -3.6875 11.3125 C-3.62949219 10.25675781 -3.57148438 9.20101562 -3.51171875 8.11328125 C-2.96217936 4.76990036 -1.91325982 2.76473738 0 0 Z " fill="#BF81AE" transform="translate(257,194)"/>
<path d="M0 0 C5.61 0 11.22 0 17 0 C12.19378142 4.80621858 3.44253588 5.4362777 -3 7 C-3 6.34 -3 5.68 -3 5 C-2.34 5 -1.68 5 -1 5 C-1 4.34 -1 3.68 -1 3 C0.32 3 1.64 3 3 3 C3 2.34 3 1.68 3 1 C2.01 0.67 1.02 0.34 0 0 Z " fill="#6AA2C8" transform="translate(313,157)"/>
<path d="M0 0 C0 0.66 0 1.32 0 2 C-2.99409596 3.01839999 -5.99499309 4.01428117 -9 5 C-9.99773437 5.33644531 -9.99773437 5.33644531 -11.015625 5.6796875 C-14.34579611 6.73665485 -16.6899816 7.32400736 -20 6 C-17.9762972 3.26204915 -16.96506278 2.99438509 -13.5 2.4375 C-12.345 2.293125 -11.19 2.14875 -10 2 C-6.3558226 -0.4294516 -4.28758728 -0.16179575 0 0 Z " fill="#A8B7D2" transform="translate(351,223)"/>
<path d="M0 0 C0 0.66 0 1.32 0 2 C-4.50106704 5.77089394 -9.01484303 8.69306887 -15 9 C-13.57183465 5.40655171 -12.00386022 4.06852278 -8.625 2.25 C-7.85414063 1.82203125 -7.08328125 1.3940625 -6.2890625 0.953125 C-4 0 -4 0 0 0 Z " fill="#C7D3E2" transform="translate(392,204)"/>
<path d="M0 0 C4.95 0 9.9 0 15 0 C9.39317028 4.48546377 9.39317028 4.48546377 4.75 5.1875 C1.57613609 5.46961515 1.57613609 5.46961515 -1 7 C-2.99958364 7.04080783 -5.00045254 7.04254356 -7 7 C-4.03312999 5.35173889 -1.34373475 4.55728913 2 4 C2 3.01 2 2.02 2 1 C1.34 0.67 0.68 0.34 0 0 Z " fill="#6399C1" transform="translate(338,150)"/>
<path d="M0 0 C0.33 0.66 0.66 1.32 1 2 C2.32796291 2.35412344 3.66216607 2.68521554 5 3 C5.99 3.66 6.98 4.32 8 5 C8 5.66 8 6.32 8 7 C8.99 7 9.98 7 11 7 C11 7.66 11 8.32 11 9 C11.99 9.33 12.98 9.66 14 10 C13.01 10.495 13.01 10.495 12 11 C11.01 10.67 10.02 10.34 9 10 C9 9.34 9 8.68 9 8 C5.7 7.67 2.4 7.34 -1 7 C-0.34 6.67 0.32 6.34 1 6 C0.649375 5.38125 0.29875 4.7625 -0.0625 4.125 C-0.371875 3.42375 -0.68125 2.7225 -1 2 C-0.67 1.34 -0.34 0.68 0 0 Z " fill="#C176A1" transform="translate(293,326)"/>
<path d="M0 0 C2.31 0.33 4.62 0.66 7 1 C7 1.66 7 2.32 7 3 C8.65 3 10.3 3 12 3 C12 3.66 12 4.32 12 5 C13.98 5 15.96 5 18 5 C18 5.66 18 6.32 18 7 C11.56318772 6.48914188 6.04057576 5.27057103 0 3 C0 2.01 0 1.02 0 0 Z " fill="#DEAFD0" transform="translate(320,343)"/>
<path d="M0 0 C0.66 0 1.32 0 2 0 C1.65226572 6.63093294 1.03910346 12.053928 -2 18 C-2.97451359 14.83466264 -3.02313245 12.28619234 -2.6875 9 C-2.60886719 8.154375 -2.53023437 7.30875 -2.44921875 6.4375 C-1.99410301 3.9680024 -1.23283338 2.17381232 0 0 Z " fill="#E7B9D8" transform="translate(252,203)"/>
<path d="M0 0 C0.99 0.495 0.99 0.495 2 1 C1.01 1.495 1.01 1.495 0 2 C0 1.34 0 0.68 0 0 Z M-2 2 C-1.01 2.495 -1.01 2.495 0 3 C-0.99 3.495 -0.99 3.495 -2 4 C-2 3.34 -2 2.68 -2 2 Z M-4 4 C-3.34 4 -2.68 4 -2 4 C-2.58536753 7.66060821 -4.083239 9.54535164 -6.5625 12.25 C-7.20316406 12.95640625 -7.84382813 13.6628125 -8.50390625 14.390625 C-8.99761719 14.92171875 -9.49132812 15.4528125 -10 16 C-10.33 14.68 -10.66 13.36 -11 12 C-10.34 11.67 -9.68 11.34 -9 11 C-8.505 10.154375 -8.01 9.30875 -7.5 8.4375 C-7.005 7.633125 -6.51 6.82875 -6 6 C-5.34 6 -4.68 6 -4 6 C-4 5.34 -4 4.68 -4 4 Z " fill="#93719F" transform="translate(311,34)"/>
<path d="M0 0 C-0.99 1.485 -0.99 1.485 -2 3 C-1.67 3.66 -1.34 4.32 -1 5 C-3.64 4.67 -6.28 4.34 -9 4 C-9 4.66 -9 5.32 -9 6 C-10.32 6.33 -11.64 6.66 -13 7 C-13 6.34 -13 5.68 -13 5 C-12.01 5 -11.02 5 -10 5 C-9.87625 4.360625 -9.7525 3.72125 -9.625 3.0625 C-9.41875 2.381875 -9.2125 1.70125 -9 1 C-6.04335481 -0.4783226 -3.25770263 -0.06032783 0 0 Z " fill="#7482A5" transform="translate(334,226)"/>
<path d="M0 0 C2.31 0.33 4.62 0.66 7 1 C7 1.66 7 2.32 7 3 C7.99 3 8.98 3 10 3 C10 3.66 10 4.32 10 5 C10.78375 5.12375 11.5675 5.2475 12.375 5.375 C15 6 15 6 17 8 C9.93218626 7.74298859 5.47706846 5.46279652 0 1 C0 0.67 0 0.34 0 0 Z " fill="#EFD8ED" transform="translate(310,104)"/>
<path d="M0 0 C0 3.10551666 -0.5393715 4.35261084 -2 7 C-2.66 7 -3.32 7 -4 7 C-4 7.99 -4 8.98 -4 10 C-4.66 10 -5.32 10 -6 10 C-6.33 12.97 -6.66 15.94 -7 19 C-7.66 19 -8.32 19 -9 19 C-8.86615492 10.56775995 -5.91497568 5.91497568 0 0 Z " fill="#F1E5F3" transform="translate(305,35)"/>
<path d="M0 0 C2.64 0.33 5.28 0.66 8 1 C8 1.66 8 2.32 8 3 C9.670625 3.37125 9.670625 3.37125 11.375 3.75 C15 5 15 5 16.2265625 7.078125 C16.48179687 7.71234375 16.73703125 8.3465625 17 9 C15.56068883 8.54738642 14.12361001 8.08767021 12.6875 7.625 C11.88699219 7.36976562 11.08648437 7.11453125 10.26171875 6.8515625 C8 6 8 6 5 4 C5 3.34 5 2.68 5 2 C3.35 1.67 1.7 1.34 0 1 C0 0.67 0 0.34 0 0 Z " fill="#A0BED7" transform="translate(346,23)"/>
<path d="M0 0 C1.15224028 0.92961422 2.29659176 1.8690125 3.4375 2.8125 C4.07558594 3.33457031 4.71367187 3.85664063 5.37109375 4.39453125 C7 6 7 6 8 9 C8.66 9.33 9.32 9.66 10 10 C9.01 10.33 8.02 10.66 7 11 C1.33272395 7.25959781 1.33272395 7.25959781 0.125 2.6875 C0.08375 1.800625 0.0425 0.91375 0 0 Z " fill="#E5B9D3" transform="translate(315,317)"/>
<path d="M0 0 C0.042721 1.66611905 0.04063832 3.33382885 0 5 C-1 6 -1 6 -3.5625 6.0625 C-4.7690625 6.0315625 -4.7690625 6.0315625 -6 6 C-6.33 7.65 -6.66 9.3 -7 11 C-7.66 11 -8.32 11 -9 11 C-8.72482232 6.32197941 -6.66806114 4.25361247 -3.47265625 1.13671875 C-2 0 -2 0 0 0 Z " fill="#CAA9C6" transform="translate(267,185)"/>
<path d="M0 0 C0.66 0 1.32 0 2 0 C1.67 3.63 1.34 7.26 1 11 C0.34 11 -0.32 11 -1 11 C-1 16.28 -1 21.56 -1 27 C-1.33 27 -1.66 27 -2 27 C-2 20.4 -2 13.8 -2 7 C-1.34 7 -0.68 7 0 7 C0 4.69 0 2.38 0 0 Z " fill="#B279A3" transform="translate(298,249)"/>
<path d="M0 0 C0.66 0.33 1.32 0.66 2 1 C1.34 2.65 0.68 4.3 0 6 C-0.33 5.34 -0.66 4.68 -1 4 C-2.546875 4.680625 -2.546875 4.680625 -4.125 5.375 C-7.36437508 6.76707361 -10.63739693 7.93380878 -14 9 C-10.40503441 3.98883585 -8.24082359 2.29526527 -2 1 C-1.34 0.67 -0.68 0.34 0 0 Z " fill="#91AAC8" transform="translate(393,200)"/>
<path d="M0 0 C0.99 0.495 0.99 0.495 2 1 C2 1.99 2 2.98 2 4 C2.66 4 3.32 4 4 4 C4.5345256 5.24420647 5.05208611 6.49570936 5.5625 7.75 C5.85253906 8.44609375 6.14257812 9.1421875 6.44140625 9.859375 C7.07831803 12.30012784 6.80248831 13.6403655 6 16 C3.63224279 13.63224279 3.00103504 11.70288662 1.875 8.5625 C1.52179688 7.59441406 1.16859375 6.62632812 0.8046875 5.62890625 C0 3 0 3 0 0 Z " fill="#BC5E94" transform="translate(298,293)"/>
<path d="M0 0 C0.99 0.33 1.98 0.66 3 1 C2.360625 1.763125 1.72125 2.52625 1.0625 3.3125 C-1.14232781 5.88246713 -1.14232781 5.88246713 -2 9 C-2.66 9 -3.32 9 -4 9 C-4 11.31 -4 13.62 -4 16 C-4.66 16 -5.32 16 -6 16 C-5.49162442 11.08570273 -4.96470151 6.58430352 -3 2 C-2.01 1.34 -1.02 0.68 0 0 Z " fill="#8A5B8D" transform="translate(302,240)"/>
<path d="M0 0 C-1.45015106 3.74622356 -1.45015106 3.74622356 -3.625 4.75 C-7.09737727 5.1155134 -10.50864298 5.05818928 -14 5 C-14 4.34 -14 3.68 -14 3 C-12.906875 2.87625 -11.81375 2.7525 -10.6875 2.625 C-6.32294604 1.88524509 -4.50672953 0 0 0 Z " fill="#A5BEDB" transform="translate(355,146)"/>
<path d="M0 0 C1.32 0.33 2.64 0.66 4 1 C4 1.66 4 2.32 4 3 C4.66 3 5.32 3 6 3 C11 8.47619048 11 8.47619048 11 11 C9.68 10.67 8.36 10.34 7 10 C7 9.34 7 8.68 7 8 C6.01 7.67 5.02 7.34 4 7 C4 6.34 4 5.68 4 5 C3.34 5 2.68 5 2 5 C1.34 3.35 0.68 1.7 0 0 Z " fill="#D2EEF8" transform="translate(366,30)"/>
<path d="M0 0 C0.99 0.495 0.99 0.495 2 1 C2.59765625 2.8125 2.59765625 2.8125 3.0625 5 C3.51706623 7.77114877 3.51706623 7.77114877 5 10 C5.04080783 11.99958364 5.04254356 14.00045254 5 16 C4.34 15.67 3.68 15.34 3 15 C3 14.01 3 13.02 3 12 C2.34 12 1.68 12 1 12 C0.01751476 7.9472484 -0.08159574 4.16138263 0 0 Z " fill="#DEB4CF" transform="translate(299,285)"/>
<path d="M0 0 C0 1.32 0 2.64 0 4 C-5.94 4.495 -5.94 4.495 -12 5 C-12 4.34 -12 3.68 -12 3 C-10.37604003 2.49663233 -8.75079459 1.99741024 -7.125 1.5 C-6.22007812 1.2215625 -5.31515625 0.943125 -4.3828125 0.65625 C-2 0 -2 0 0 0 Z " fill="#B5D1EB" transform="translate(329,153)"/>
<path d="M0 0 C0 0.66 0 1.32 0 2 C-2.70879335 3.35439668 -5.00933268 3.06501451 -8 3 C-8 3.66 -8 4.32 -8 5 C-10.97 5 -13.94 5 -17 5 C-11.65655346 1.43770231 -6.42952013 0 0 0 Z " fill="#B6BEDA" transform="translate(398,134)"/>
<path d="M0 0 C0.99 0.495 0.99 0.495 2 1 C2.40729228 3.32156597 2.74438677 5.6568787 3 8 C3.66 8 4.32 8 5 8 C5 8.99 5 9.98 5 11 C5.66 11 6.32 11 7 11 C7.33 12.32 7.66 13.64 8 15 C3.72943339 13.25050318 2.63783868 11.09149779 0.75 7.04296875 C-0.14686826 4.59993699 -0.32251441 2.5801153 0 0 Z " fill="#EED6EB" transform="translate(296,82)"/>
<path d="M0 0 C0.66 0 1.32 0 2 0 C2 0.66 2 1.32 2 2 C2.66 2 3.32 2 4 2 C4.33 3.65 4.66 5.3 5 7 C5.99 7.33 6.98 7.66 8 8 C8.66 7.34 9.32 6.68 10 6 C10 7.98 10 9.96 10 12 C8.7035649 11.23721377 7.41300852 10.46443041 6.125 9.6875 C5.40570313 9.25824219 4.68640625 8.82898438 3.9453125 8.38671875 C2 7 2 7 0 4 C0 2.68 0 1.36 0 0 Z " fill="#B86896" transform="translate(305,309)"/>
<path d="M0 0 C0.66 1.32 1.32 2.64 2 4 C0.6696875 4.309375 0.6696875 4.309375 -0.6875 4.625 C-4.92278682 6.38304358 -6.30493333 8.35373333 -9 12 C-10.32 11.67 -11.64 11.34 -13 11 C-8.73958774 7.23645964 -4.48151089 3.50118038 0 0 Z " fill="#A4B2CB" transform="translate(410,185)"/>
<path d="M0 0 C0.33 0 0.66 0 1 0 C0.67 5.94 0.34 11.88 0 18 C-0.66 18 -1.32 18 -2 18 C-2.3690205 5.33029613 -2.3690205 5.33029613 0 0 Z " fill="#FDDBF0" transform="translate(249,210)"/>
<path d="M0 0 C0.99 0.33 1.98 0.66 3 1 C1.625 3.5 1.625 3.5 0 6 C-0.66 6 -1.32 6 -2 6 C-2 6.66 -2 7.32 -2 8 C-2.66 8 -3.32 8 -4 8 C-4 8.66 -4 9.32 -4 10 C-4.99 10.33 -5.98 10.66 -7 11 C-6.40716379 7.60807637 -5.23256811 5.7892243 -2.9375 3.25 C-2.38964844 2.63640625 -1.84179688 2.0228125 -1.27734375 1.390625 C-0.85582031 0.93171875 -0.43429687 0.4728125 0 0 Z " fill="#9199BE" transform="translate(373,90)"/>
<path d="M0 0 C0.99 0 1.98 0 3 0 C2.45276317 3.37462715 1.9451 5.08235 0 8 C-2.625 8.6875 -2.625 8.6875 -5 9 C-4.01 7.02 -3.02 5.04 -2 3 C-1.34 3 -0.68 3 0 3 C0 2.01 0 1.02 0 0 Z " fill="#C0CADD" transform="translate(378,86)"/>
<path d="M0 0 C0.99 0 1.98 0 3 0 C3 0.66 3 1.32 3 2 C-0.93281242 5.0900669 -4.02125936 6.52583422 -9 7 C-8.4375 5.0625 -8.4375 5.0625 -7 3 C-3.375 2.25 -3.375 2.25 0 2 C0 1.34 0 0.68 0 0 Z " fill="#ACACC7" transform="translate(325,230)"/>
<path d="M0 0 C0 0.66 0 1.32 0 2 C-0.99 2 -1.98 2 -3 2 C-3 2.66 -3 3.32 -3 4 C-3.66 4 -4.32 4 -5 4 C-5 4.66 -5 5.32 -5 6 C-5.66 6 -6.32 6 -7 6 C-7 6.66 -7 7.32 -7 8 C-8.98 8.99 -8.98 8.99 -11 10 C-9.80100302 6.9168649 -8.52299523 3.93720508 -7 1 C-6.67 1.66 -6.34 2.32 -6 3 C-5.34 3 -4.68 3 -4 3 C-4 2.34 -4 1.68 -4 1 C-2 0 -2 0 0 0 Z " fill="#AC97B7" transform="translate(314,32)"/>
<path d="M0 0 C1.95803507 -0.05389087 3.91648909 -0.09274217 5.875 -0.125 C7.51082031 -0.15980469 7.51082031 -0.15980469 9.1796875 -0.1953125 C12 0 12 0 14 2 C13.67 2.33 13.34 2.66 13 3 C10.99764659 2.96216483 8.996489 2.84524147 7 2.6875 C5.906875 2.60886719 4.81375 2.53023438 3.6875 2.44921875 C2.800625 2.30097656 1.91375 2.15273438 1 2 C0.67 1.34 0.34 0.68 0 0 Z " fill="#E6C6DE" transform="translate(338,350)"/>
<path d="M0 0 C5.72398793 0.74660712 11.34853777 1.82877141 17 3 C16.67 3.66 16.34 4.32 16 5 C12.37 4.67 8.74 4.34 5 4 C5 3.34 5 2.68 5 2 C3.35 1.67 1.7 1.34 0 1 C0 0.67 0 0.34 0 0 Z " fill="#C172A2" transform="translate(310,339)"/>
<path d="M0 0 C0.99 0.495 0.99 0.495 2 1 C2 2.32 2 3.64 2 5 C2.66 5 3.32 5 4 5 C4 7.31 4 9.62 4 12 C3.34 12 2.68 12 2 12 C-0.60018816 8.09971775 -0.15085514 4.52565431 0 0 Z " fill="#F4D1E6" transform="translate(247,268)"/>
<path d="M0 0 C0.66 0 1.32 0 2 0 C1.43697042 3.94120709 0.3208055 6.7508723 -2 10 C-2.66 10 -3.32 10 -4 10 C-3.43697042 6.05879291 -2.3208055 3.2491277 0 0 Z " fill="#E4E8F6" transform="translate(422,168)"/>
<path d="M0 0 C2.92879371 0.62759865 5.36095629 1.58622659 8 3 C8 3.66 8 4.32 8 5 C8.66 5 9.32 5 10 5 C10 5.66 10 6.32 10 7 C8.68 7 7.36 7 6 7 C6 6.34 6 5.68 6 5 C5.01 5 4.02 5 3 5 C3 4.34 3 3.68 3 3 C2.01 2.67 1.02 2.34 0 2 C0 1.34 0 0.68 0 0 Z " fill="#F2D1E7" transform="translate(334,335)"/>
<path d="M0 0 C0.99 0 1.98 0 3 0 C7 5.14285714 7 5.14285714 7 9 C5.109375 8.75390625 5.109375 8.75390625 3 8 C1.953125 6.15234375 1.953125 6.15234375 1.25 3.9375 C1.00765625 3.20402344 0.7653125 2.47054688 0.515625 1.71484375 C0.34546875 1.14894531 0.1753125 0.58304687 0 0 Z " fill="#E2B5D2" transform="translate(256,294)"/>
<path d="M0 0 C1.875 0.3125 1.875 0.3125 4 1 C4.66 1.99 5.32 2.98 6 4 C8.56282742 4.72965366 8.56282742 4.72965366 11 5 C10.67 5.66 10.34 6.32 10 7 C8.02 7 6.04 7 4 7 C2.02 3.535 2.02 3.535 0 0 Z " fill="#AB6F9C" transform="translate(309,98)"/>
<path d="M0 0 C1.32 0.33 2.64 0.66 4 1 C3.3125 3.4375 3.3125 3.4375 2 6 C-0.625 6.8125 -0.625 6.8125 -3 7 C-2.01 4.69 -1.02 2.38 0 0 Z " fill="#CFDAED" transform="translate(396,197)"/>
<path d="M0 0 C0.89203125 0.08378906 1.7840625 0.16757813 2.703125 0.25390625 C3.87359375 0.35574219 5.0440625 0.45757812 6.25 0.5625 C7.99023438 0.71912109 7.99023438 0.71912109 9.765625 0.87890625 C12.51871477 0.98198087 14.419982 0.86213473 17 0 C17.33 0.66 17.66 1.32 18 2 C11.76817361 3.03863773 6.25307239 2.83288874 0 2 C0 1.34 0 0.68 0 0 Z " fill="#966E9C" transform="translate(326,108)"/>
<path d="M0 0 C0.33 1.32 0.66 2.64 1 4 C1.66 4 2.32 4 3 4 C3 3.01 3 2.02 3 1 C3.66 1.33 4.32 1.66 5 2 C4.01 5.3 3.02 8.6 2 12 C1.67 12 1.34 12 1 12 C1 10.02 1 8.04 1 6 C0.34 5.67 -0.32 5.34 -1 5 C-0.67 3.35 -0.34 1.7 0 0 Z " fill="#967093" transform="translate(295,50)"/>
<path d="M0 0 C0.99 0.33 1.98 0.66 3 1 C3 1.66 3 2.32 3 3 C-1.38461538 6 -1.38461538 6 -4 6 C-4 6.66 -4 7.32 -4 8 C-4.66 8 -5.32 8 -6 8 C-4.75237172 4.15314615 -3.6129609 1.97070595 0 0 Z " fill="#D7CFE2" transform="translate(314,27)"/>
<path d="M0 0 C0.66 0 1.32 0 2 0 C2 0.66 2 1.32 2 2 C2.99 2 3.98 2 5 2 C5 2.66 5 3.32 5 4 C-0.94 4.495 -0.94 4.495 -7 5 C-6.01 4.01 -5.02 3.02 -4 2 C-2.68 2 -1.36 2 0 2 C0 1.34 0 0.68 0 0 Z " fill="#BF9BAE" transform="translate(356,349)"/>
<path d="M0 0 C2.31 0.66 4.62 1.32 7 2 C7 2.66 7 3.32 7 4 C8.65 4 10.3 4 12 4 C12 4.66 12 5.32 12 6 C7.15340923 5.40895235 3.39251833 4.02055843 -1 2 C-0.67 1.34 -0.34 0.68 0 0 Z " fill="#F3D3E7" transform="translate(308,339)"/>
<path d="M0 0 C0.66 0.33 1.32 0.66 2 1 C-0.10515339 4.72450216 -1.24267224 6.6795921 -5.25 8.375 C-6.61125 8.684375 -6.61125 8.684375 -8 9 C-8 8.34 -8 7.68 -8 7 C-7.01 7 -6.02 7 -5 7 C-5 6.34 -5 5.68 -5 5 C-4.34 5 -3.68 5 -3 5 C-2.690625 4.360625 -2.38125 3.72125 -2.0625 3.0625 C-1 1 -1 1 0 0 Z " fill="#8E6B99" transform="translate(275,179)"/>
<path d="M0 0 C-7.28571429 4.57142857 -7.28571429 4.57142857 -12 4 C-8.66437635 0.13769893 -4.98576775 -1.84658065 0 0 Z " fill="#EFE6F6" transform="translate(363,108)"/>
<path d="M0 0 C0.99 0.33 1.98 0.66 3 1 C3.33 1.99 3.66 2.98 4 4 C4.99 4.66 5.98 5.32 7 6 C7 6.99 7 7.98 7 9 C5.68 8.67 4.36 8.34 3 8 C3 7.01 3 6.02 3 5 C2.34 5 1.68 5 1 5 C0.67 3.35 0.34 1.7 0 0 Z " fill="#A46293" transform="translate(302,88)"/>
<path d="M0 0 C1.32 0.33 2.64 0.66 4 1 C4.33 2.65 4.66 4.3 5 6 C5.66 6 6.32 6 7 6 C7 6.66 7 7.32 7 8 C5.68 7.67 4.36 7.34 3 7 C3 6.34 3 5.68 3 5 C2.34 5 1.68 5 1 5 C0.67 3.35 0.34 1.7 0 0 Z " fill="#C384AB" transform="translate(323,327)"/>
<path d="M0 0 C0.66 0 1.32 0 2 0 C2 0.66 2 1.32 2 2 C2.66 2 3.32 2 4 2 C4 2.66 4 3.32 4 4 C4.804375 4.268125 5.60875 4.53625 6.4375 4.8125 C7.283125 5.204375 8.12875 5.59625 9 6 C9.33 6.99 9.66 7.98 10 9 C7 9 7 9 4.4375 6.75 C2.42724922 4.48202476 1.12774794 2.76810859 0 0 Z " fill="#AD4682" transform="translate(322,330)"/>
<path d="M0 0 C-1.66302124 3.32604248 -4.62976481 3.80042476 -8 5 C-10.4375 4.6875 -10.4375 4.6875 -12 4 C-10.68 3.67 -9.36 3.34 -8 3 C-8 2.34 -8 1.68 -8 1 C-5.07175348 0.02391783 -3.04386724 -0.08226668 0 0 Z " fill="#B9CFE3" transform="translate(376,213)"/>
<path d="M0 0 C2.64 0.33 5.28 0.66 8 1 C8 1.66 8 2.32 8 3 C9.32 3.66 10.64 4.32 12 5 C10.02 5 8.04 5 6 5 C6 4.34 6 3.68 6 3 C4.02 2.34 2.04 1.68 0 1 C0 0.67 0 0.34 0 0 Z " fill="#AD6092" transform="translate(332,339)"/>
<path d="M0 0 C-0.28875 0.495 -0.5775 0.99 -0.875 1.5 C-2.41288416 4.91752035 -3.14847805 8.3506202 -4 12 C-4.33 12 -4.66 12 -5 12 C-5.15384615 4 -5.15384615 4 -4 1 C-2 0 -2 0 0 0 Z " fill="#C6AEC4" transform="translate(304,246)"/>
<path d="M0 0 C1.2380014 3.57644848 0.74926071 6.33694766 0 10 C-0.66 10 -1.32 10 -2 10 C-2 11.65 -2 13.3 -2 15 C-2.33 15 -2.66 15 -3 15 C-3.3152595 9.01006953 -2.68219822 5.36439644 0 0 Z " fill="#BE6A99" transform="translate(252,214)"/>
<path d="M0 0 C0 0.66 0 1.32 0 2 C-0.66 2 -1.32 2 -2 2 C-2 2.66 -2 3.32 -2 4 C-5.37462715 3.45276317 -7.08235 2.9451 -10 1 C-6.59437148 0.22157062 -3.49234244 -0.09978121 0 0 Z " fill="#ABBCD1" transform="translate(380,139)"/>
<path d="M0 0 C-0.66 1.32 -1.32 2.64 -2 4 C-4.31 3.67 -6.62 3.34 -9 3 C-6.01800145 0.01800145 -4.21244839 0 0 0 Z " fill="#AFB5CE" transform="translate(407,130)"/>
<path d="M0 0 C0.66 0 1.32 0 2 0 C2.17835515 4.54805635 1.99785435 7.8794254 0 12 C-0.66 11.34 -1.32 10.68 -2 10 C-1.7578125 7.6171875 -1.7578125 7.6171875 -1.125 4.875 C-0.92132813 3.96492188 -0.71765625 3.05484375 -0.5078125 2.1171875 C-0.34023438 1.41851562 -0.17265625 0.71984375 0 0 Z " fill="#DDF0F5" transform="translate(382,76)"/>
<path d="M0 0 C0.33 0 0.66 0 1 0 C1 2.31 1 4.62 1 7 C0.34 7 -0.32 7 -1 7 C-1.33 7.99 -1.66 8.98 -2 10 C-3.26066301 6.21801096 -2.42292658 4.63636792 -1 1 C-0.67 0.67 -0.34 0.34 0 0 Z " fill="#87A7C5" transform="translate(380,73)"/>
<path d="M0 0 C2.475 0.495 2.475 0.495 5 1 C5 1.66 5 2.32 5 3 C5.66 3 6.32 3 7 3 C8.625 4.5 8.625 4.5 10 6 C9.67 6.99 9.34 7.98 9 9 C7.49704815 7.69088122 5.99770689 6.37761608 4.5 5.0625 C3.6646875 4.33160156 2.829375 3.60070313 1.96875 2.84765625 C1.3190625 2.23792969 0.669375 1.62820312 0 1 C0 0.67 0 0.34 0 0 Z " fill="#93BFDB" transform="translate(363,32)"/>
<path d="M0 0 C1.32 0 2.64 0 4 0 C4 0.66 4 1.32 4 2 C5.32 2.33 6.64 2.66 8 3 C8 3.66 8 4.32 8 5 C5.69 4.67 3.38 4.34 1 4 C0.67 2.68 0.34 1.36 0 0 Z " fill="#AD3E85" transform="translate(316,337)"/>
<path d="M0 0 C6.625 0.75 6.625 0.75 10 3 C9.67 3.66 9.34 4.32 9 5 C5.22454612 3.90931332 2.52956528 3.0916909 0 0 Z " fill="#C16B9C" transform="translate(282,323)"/>
<path d="M0 0 C0.33 0 0.66 0 1 0 C1 2.64 1 5.28 1 8 C1.66 8 2.32 8 3 8 C3.33 10.64 3.66 13.28 4 16 C3.34 15.67 2.68 15.34 2 15 C2 13.68 2 12.36 2 11 C1.34 11 0.68 11 0 11 C0 7.37 0 3.74 0 0 Z " fill="#B96997" transform="translate(249,262)"/>
<path d="M0 0 C0 0.66 0 1.32 0 2 C-2.97 2.66 -5.94 3.32 -9 4 C-9 3.01 -9 2.02 -9 1 C-6.04335481 -0.4783226 -3.25770263 -0.06032783 0 0 Z " fill="#B5CCE8" transform="translate(351,223)"/>
<path d="M0 0 C0 0.66 0 1.32 0 2 C-3.6441774 4.4294516 -5.71241272 4.16179575 -10 4 C-7.18342017 0.590456 -4.32639749 0 0 0 Z " fill="#57A1CC" transform="translate(360,215)"/>
<path d="M0 0 C0.99 1.485 0.99 1.485 2 3 C2.53625 3.61875 3.0725 4.2375 3.625 4.875 C5.28636724 7.44256756 5.2500201 8.99975884 5 12 C4.34 12 3.68 12 3 12 C2.49166409 10.75336669 1.99368855 9.50250613 1.5 8.25 C1.2215625 7.55390625 0.943125 6.8578125 0.65625 6.140625 C0 4 0 4 0 0 Z " fill="#F4C8E3" transform="translate(251,281)"/>
<path d="M0 0 C0.66 0.33 1.32 0.66 2 1 C1.25 7.625 1.25 7.625 -1 11 C-1.99 11 -2.98 11 -4 11 C-4 10.34 -4 9.68 -4 9 C-3.34 9 -2.68 9 -2 9 C-1.34 6.03 -0.68 3.06 0 0 Z " fill="#7C84AD" transform="translate(422,158)"/>
<path d="M0 0 C4.455 0.99 4.455 0.99 9 2 C8.67 2.66 8.34 3.32 8 4 C5.36 4 2.72 4 0 4 C0 2.66666667 0 1.33333333 0 0 Z " fill="#D0B6D0" transform="translate(324,109)"/>
<path d="M0 0 C0.99 0.33 1.98 0.66 3 1 C3 1.99 3 2.98 3 4 C4.32 4 5.64 4 7 4 C7 4.66 7 5.32 7 6 C1.46153846 5.50769231 1.46153846 5.50769231 -0.875 2.9375 C-1.431875 1.9784375 -1.431875 1.9784375 -2 1 C-1.34 0.67 -0.68 0.34 0 0 Z " fill="#C69DB9" transform="translate(344,341)"/>
<path d="M0 0 C2.125 0.9375 2.125 0.9375 4 2 C3.01 2 2.02 2 1 2 C1 2.66 1 3.32 1 4 C-1 5.625 -1 5.625 -3 7 C-3.66 6.67 -4.32 6.34 -5 6 C-2.25 1.125 -2.25 1.125 0 0 Z " fill="#A79DC1" transform="translate(282,172)"/>
<path d="M0 0 C-0.66 0.66 -1.32 1.32 -2 2 C-2.99 2 -3.98 2 -5 2 C-5 2.66 -5 3.32 -5 4 C-6.32 4 -7.64 4 -9 4 C-9 3.34 -9 2.68 -9 2 C-3.375 -1.125 -3.375 -1.125 0 0 Z " fill="#CFD3E7" transform="translate(294,168)"/>
<path d="M0 0 C-1.40759521 2.81519043 -3.22583277 3.61291638 -6 5 C-6.99 4.67 -7.98 4.34 -9 4 C-9 3.34 -9 2.68 -9 2 C-5.86501708 0.14223235 -3.62528568 -0.20140476 0 0 Z " fill="#678DBA" transform="translate(310,164)"/>
<path d="M0 0 C0 0.66 0 1.32 0 2 C-1.32 2.33 -2.64 2.66 -4 3 C-4 3.66 -4 4.32 -4 5 C-5.65 5 -7.3 5 -9 5 C-9 4.34 -9 3.68 -9 3 C-3.375 0 -3.375 0 0 0 Z " fill="#D5D1E7" transform="translate(416,125)"/>
<path d="M0 0 C0.66 0.33 1.32 0.66 2 1 C0 4 0 4 -3.125 4.6875 C-4.07375 4.790625 -5.0225 4.89375 -6 5 C-6 5.66 -6 6.32 -6 7 C-6.66 7 -7.32 7 -8 7 C-7.67 5.68 -7.34 4.36 -7 3 C-5.5459375 2.814375 -5.5459375 2.814375 -4.0625 2.625 C-2.5465625 2.315625 -2.5465625 2.315625 -1 2 C-0.67 1.34 -0.34 0.68 0 0 Z " fill="#A292B6" transform="translate(424,120)"/>
<path d="M0 0 C3.55780196 0.60990891 6.6828589 1.5783681 10 3 C8.125 4.0625 8.125 4.0625 6 5 C5.34 4.67 4.68 4.34 4 4 C4 3.34 4 2.68 4 2 C2.68 2 1.36 2 0 2 C0 1.34 0 0.68 0 0 Z " fill="#F0DBED" transform="translate(347,343)"/>
<path d="M0 0 C2.31 0.33 4.62 0.66 7 1 C7 1.99 7 2.98 7 4 C4.69 3.67 2.38 3.34 0 3 C0 2.01 0 1.02 0 0 Z " fill="#D7A5C3" transform="translate(320,343)"/>
<path d="M0 0 C0.33 0.66 0.66 1.32 1 2 C2.32796291 2.35412344 3.66216607 2.68521554 5 3 C5.99 3.66 6.98 4.32 8 5 C7.67 5.66 7.34 6.32 7 7 C5.0625 6.625 5.0625 6.625 3 6 C2.67 5.34 2.34 4.68 2 4 C1.01 3.34 0.02 2.68 -1 2 C-0.67 1.34 -0.34 0.68 0 0 Z " fill="#AF4787" transform="translate(293,326)"/>
<path d="M0 0 C1.32 0.33 2.64 0.66 4 1 C2.02 3.31 0.04 5.62 -2 8 C-2 4.79604584 -1.25664978 2.90600261 0 0 Z " fill="#889CBF" transform="translate(412,178)"/>
<path d="M0 0 C-1.45255699 3.82946843 -3.42895561 5.12050295 -7 7 C-6.75 4.625 -6.75 4.625 -6 2 C-3.84898936 0.54286376 -2.59713506 0 0 0 Z " fill="#C6B1CF" transform="translate(279,175)"/>
<path d="M0 0 C0.99 0.66 1.98 1.32 3 2 C2.34 3.65 1.68 5.3 1 7 C0.01 7 -0.98 7 -2 7 C-1.125 1.125 -1.125 1.125 0 0 Z " fill="#6E80B2" transform="translate(415,171)"/>
<path d="M0 0 C1.9375 0.8125 1.9375 0.8125 4 2 C4.33 2.99 4.66 3.98 5 5 C5.66 5.33 6.32 5.66 7 6 C6.01 6.33 5.02 6.66 4 7 C0 2.25 0 2.25 0 0 Z " fill="#F6D2EC" transform="translate(318,321)"/>
<path d="M0 0 C1.32 0.33 2.64 0.66 4 1 C4 1.66 4 2.32 4 3 C4.66 3 5.32 3 6 3 C6 3.66 6 4.32 6 5 C4.35 4.67 2.7 4.34 1 4 C0.67 2.68 0.34 1.36 0 0 Z " fill="#B2558A" transform="translate(279,318)"/>
<path d="M0 0 C1.32 0.33 2.64 0.66 4 1 C4.33 2.65 4.66 4.3 5 6 C3.0625 5.25 3.0625 5.25 1 4 C0.25 1.875 0.25 1.875 0 0 Z " fill="#E8B4D5" transform="translate(309,312)"/>
<path d="M0 0 C0.99 0.33 1.98 0.66 3 1 C2.195625 1.61875 1.39125 2.2375 0.5625 2.875 C-2.03874519 4.74164041 -2.03874519 4.74164041 -3 7 C-3.66 7 -4.32 7 -5 7 C-3.70700306 4.11562221 -2.34058637 2.12780579 0 0 Z " fill="#D0C2DA" transform="translate(309,239)"/>
<path d="M0 0 C0.66 0.33 1.32 0.66 2 1 C0 4 0 4 -1.9453125 4.51171875 C-2.66460937 4.56972656 -3.38390625 4.62773437 -4.125 4.6875 C-6.043125 4.8421875 -6.043125 4.8421875 -8 5 C-8 4.34 -8 3.68 -8 3 C-7.05125 2.690625 -6.1025 2.38125 -5.125 2.0625 C-2.13919592 1.12605258 -2.13919592 1.12605258 0 0 Z " fill="#8AAECE" transform="translate(377,209)"/>
<path d="M0 0 C1.258125 -0.020625 2.51625 -0.04125 3.8125 -0.0625 C4.52019531 -0.07410156 5.22789062 -0.08570312 5.95703125 -0.09765625 C8 0 8 0 11 1 C11 1.66 11 2.32 11 3 C9.35 3 7.7 3 6 3 C6 2.34 6 1.68 6 1 C4.02 1 2.04 1 0 1 C0 0.67 0 0.34 0 0 Z " fill="#E2F3FD" transform="translate(348,23)"/>
<path d="M0 0 C2.97 0.495 2.97 0.495 6 1 C6.33 2.32 6.66 3.64 7 5 C6.01 5 5.02 5 4 5 C4 4.34 4 3.68 4 3 C3.34 3 2.68 3 2 3 C2 2.34 2 1.68 2 1 C1.34 0.67 0.68 0.34 0 0 Z " fill="#F4D1EA" transform="translate(326,330)"/>
<path d="M0 0 C0 0.66 0 1.32 0 2 C-2.31 2.66 -4.62 3.32 -7 4 C-7.66 3.34 -8.32 2.68 -9 2 C-5.62902617 0.50178941 -3.79557881 0 0 0 Z " fill="#C7CBE5" transform="translate(303,163)"/>
<path d="M0 0 C5.53846154 -0.36923077 5.53846154 -0.36923077 7.875 1.5 C8.24625 1.995 8.6175 2.49 9 3 C2.84765625 2.4140625 2.84765625 2.4140625 1 2 C0.67 1.34 0.34 0.68 0 0 Z " fill="#F9E8F8" transform="translate(318,109)"/>
<path d="M0 0 C0.33 0.66 0.66 1.32 1 2 C-5.75 5 -5.75 5 -8 5 C-8 4.34 -8 3.68 -8 3 C-6.68 3 -5.36 3 -4 3 C-4 2.34 -4 1.68 -4 1 C-2.68 0.67 -1.36 0.34 0 0 Z " fill="#B4A6C3" transform="translate(360,105)"/>
<path d="M0 0 C2.08954032 4.17908064 2.16552619 4.80410573 1 9 C0.34 9 -0.32 9 -1 9 C-0.67 6.03 -0.34 3.06 0 0 Z " fill="#D8C0D6" transform="translate(297,45)"/>
<path d="M0 0 C1.98 0 3.96 0 6 0 C5.67 0.99 5.34 1.98 5 3 C2.03 2.505 2.03 2.505 -1 2 C-0.67 1.34 -0.34 0.68 0 0 Z " fill="#9195BA" transform="translate(327,25)"/>
</svg>
